<!--?xml version="1.0" encoding="UTF-8" standalone="no"?--><svg width="67.127846mm" height="16.911831mm" viewBox="0 0 67.127846 16.911831" version="1.1" id="svg1294" inkscape:version="1.3.2 (091e20e, 2023-11-25, custom)" sodipodi:docname="logo.svg" inkscape:export-filename="logo.png" inkscape:export-xdpi="300" inkscape:export-ydpi="300" xmlns:inkscape="http://www.inkscape.org/namespaces/inkscape" xmlns:sodipodi="http://sodipodi.sourceforge.net/DTD/sodipodi-0.dtd" xmlns="http://www.w3.org/2000/svg" xmlns:svg="http://www.w3.org/2000/svg" xmlns:rdf="http://www.w3.org/1999/02/22-rdf-syntax-ns#" xmlns:cc="http://creativecommons.org/ns#" xmlns:dc="http://purl.org/dc/elements/1.1/">
  <defs id="defs1288"></defs>
  <sodipodi:namedview id="base" pagecolor="#ffffff" bordercolor="#666666" borderopacity="1.0" inkscape:pageopacity="0.0" inkscape:pageshadow="2" inkscape:zoom="2.8" inkscape:cx="105.17857" inkscape:cy="81.964286" inkscape:document-units="mm" inkscape:current-layer="layer1" inkscape:document-rotation="0" showgrid="false" inkscape:window-width="1920" inkscape:window-height="1001" inkscape:window-x="-9" inkscape:window-y="-9" inkscape:window-maximized="1" inkscape:showpageshadow="2" inkscape:pagecheckerboard="0" inkscape:deskcolor="#d1d1d1"></sodipodi:namedview>
  <metadata id="metadata1291">
    <rdf:rdf>
      <cc:work rdf:about="">
        <dc:format>image/svg+xml</dc:format>
        <dc:type rdf:resource="http://purl.org/dc/dcmitype/StillImage"></dc:type>
        <dc:title></dc:title>
      </cc:work>
    </rdf:rdf>
  </metadata>
  <g inkscape:label="Layer 1" inkscape:groupmode="layer" id="layer1" transform="translate(145.44488,101.43806)">
    <path id="path1369" style="fill:#000000;fill-opacity:1;stroke:none;stroke-width:0.181466;stroke-linejoin:round;stroke-miterlimit:4;stroke-dasharray:none;stroke-dashoffset:0;stroke-opacity:0.8" d="m -84.279864,-93.279975 c 0.192152,1.7e-5 0.362747,-0.123224 0.422726,-0.305778 h 0.530069 v -0.17062 h 0.552447 v 0.17062 h 0.556604 c 0.06062,0.18135 0.230537,0.303538 0.421769,0.303546 0.245596,-8e-6 0.444758,-0.199177 0.444758,-0.44477 0,-0.142436 -0.06837,-0.276123 -0.183712,-0.359776 h 0.06837 l 0.362017,0.362017 0.217913,0.217911 h 1.722836 l 0.222059,-0.222384 h 0.120469 l 0.50451,-0.134839 v -0.527844 l -3.666784,-1.938841 -1.657651,-0.672581 h -8.06339 v 1.294687 h 1.581884 l 0.475769,0.823714 h -2.057653 v 1.378088 h 6.717257 l 0.334844,-0.579928 h 0.115027 c -0.117205,0.08342 -0.186564,0.218153 -0.186592,0.362017 0,0.245585 0.198862,0.444761 0.444458,0.444761 z m -0.06135,-1.604938 h -3.619894 l -0.47544,-0.823714 h 3.619894 z m -3.997243,0 h -0.277017 l -0.475449,-0.823714 h 0.276697 z m -0.654376,0 h -0.277016 l -0.47545,-0.823714 h 0.276707 z m 6.170917,-0.478952 v -0.624017 l 0.86846,0.208002 v 0.269036 z" sodipodi:nodetypes="sccccccsscccccccccccccccccccccsscccccccccccccccccccc"></path>
    <g aria-label="CARTOTRAIN" id="text1373" style="font-style:normal;font-weight:normal;font-size:4.78663px;line-height:1.25;font-family:sans-serif;letter-spacing:0.457912px;fill:#000000;fill-opacity:1;stroke:none;stroke-width:0.179497">
      <path d="m -126.3761,-94.687141 q -0.0397,0.549247 -0.40667,0.864772 -0.36461,0.315525 -0.96294,0.315525 -0.65442,0 -1.03071,-0.439398 -0.37396,-0.441735 -0.37396,-1.210681 v -0.208013 q 0,-0.490816 0.17296,-0.864772 0.17295,-0.373955 0.49315,-0.572619 0.32254,-0.201001 0.74791,-0.201001 0.58898,0 0.94891,0.315525 0.35993,0.315525 0.41603,0.885807 h -0.70117 q -0.0257,-0.329548 -0.18464,-0.476793 -0.15659,-0.149583 -0.47913,-0.149583 -0.35058,0 -0.52587,0.25242 -0.17296,0.250083 -0.17763,0.778295 v 0.257095 q 0,0.551584 0.16594,0.806341 0.16828,0.254757 0.52821,0.254757 0.32488,0 0.48381,-0.147245 0.16126,-0.149582 0.18464,-0.460432 z" style="font-style:normal;font-variant:normal;font-weight:bold;font-stretch:normal;font-size:4.78663px;font-family:Roboto;-inkscape-font-specification:'Roboto Bold';text-align:center;text-anchor:middle;fill:#000000;fill-opacity:1;stroke-width:0.179497" id="path861"></path>
      <path d="m -123.53656,-94.254755 h -1.22937 l -0.23373,0.701166 h -0.74557 l 1.26677,-3.402995 h 0.64975 l 1.27379,3.402995 h -0.74558 z m -1.04006,-0.567945 h 0.85075 l -0.42771,-1.273786 z" style="font-style:normal;font-variant:normal;font-weight:bold;font-stretch:normal;font-size:4.78663px;font-family:Roboto;-inkscape-font-specification:'Roboto Bold';text-align:center;text-anchor:middle;fill:#000000;fill-opacity:1;stroke-width:0.179497" id="path863"></path>
      <path d="m -120.51939,-94.799328 h -0.55859 v 1.245739 h -0.70117 v -3.402995 h 1.26444 q 0.603,0 0.93021,0.268781 0.32721,0.26878 0.32721,0.759597 0,0.348246 -0.15192,0.581968 -0.14958,0.231385 -0.45575,0.369281 l 0.73622,1.390647 v 0.03272 h -0.75258 z m -0.55859,-0.567945 h 0.56561 q 0.2641,0 0.40901,-0.133222 0.14491,-0.135558 0.14491,-0.371618 0,-0.240734 -0.1379,-0.37863 -0.13556,-0.137896 -0.41836,-0.137896 h -0.56327 z" style="font-style:normal;font-variant:normal;font-weight:bold;font-stretch:normal;font-size:4.78663px;font-family:Roboto;-inkscape-font-specification:'Roboto Bold';text-align:center;text-anchor:middle;fill:#000000;fill-opacity:1;stroke-width:0.179497" id="path865"></path>
      <path d="m -115.82175,-96.388639 h -1.0424 v 2.83505 h -0.70117 v -2.83505 h -1.02838 v -0.567945 h 2.77195 z" style="font-style:normal;font-variant:normal;font-weight:bold;font-stretch:normal;font-size:4.78663px;font-family:Roboto;-inkscape-font-specification:'Roboto Bold';text-align:center;text-anchor:middle;fill:#000000;fill-opacity:1;stroke-width:0.179497" id="path867"></path>
      <path d="m -112.2343,-95.177958 q 0,0.502503 -0.17763,0.881133 -0.17763,0.37863 -0.50951,0.584305 -0.32955,0.205676 -0.75726,0.205676 -0.42304,0 -0.75493,-0.203339 -0.33188,-0.203338 -0.51419,-0.579631 -0.1823,-0.37863 -0.18464,-0.869446 v -0.16828 q 0,-0.502503 0.17997,-0.88347 0.1823,-0.383304 0.51185,-0.586643 0.33189,-0.205675 0.75726,-0.205675 0.42538,0 0.75492,0.205675 0.33189,0.203339 0.51186,0.586643 0.1823,0.380967 0.1823,0.881133 z m -0.71052,-0.154257 q 0,-0.535223 -0.19165,-0.813353 -0.19165,-0.278129 -0.54691,-0.278129 -0.35292,0 -0.54457,0.275792 -0.19165,0.273455 -0.19399,0.804004 v 0.165943 q 0,0.5212 0.19165,0.808679 0.19165,0.287478 0.55159,0.287478 0.35292,0 0.54223,-0.275792 0.18932,-0.27813 0.19165,-0.808679 z" style="font-style:normal;font-variant:normal;font-weight:bold;font-stretch:normal;font-size:4.78663px;font-family:Roboto;-inkscape-font-specification:'Roboto Bold';text-align:center;text-anchor:middle;fill:#000000;fill-opacity:1;stroke-width:0.179497" id="path869"></path>
      <path d="m -108.90394,-96.388639 h -1.0424 v 2.83505 h -0.70117 v -2.83505 h -1.02838 v -0.567945 h 2.77195 z" style="font-style:normal;font-variant:normal;font-weight:bold;font-stretch:normal;font-size:4.78663px;font-family:Roboto;-inkscape-font-specification:'Roboto Bold';text-align:center;text-anchor:middle;fill:#000000;fill-opacity:1;stroke-width:0.179497" id="path871"></path>
      <path d="m -106.7866,-94.799328 h -0.5586 v 1.245739 h -0.70117 v -3.402995 h 1.26444 q 0.603,0 0.93021,0.268781 0.32722,0.26878 0.32722,0.759597 0,0.348246 -0.15192,0.581968 -0.14959,0.231385 -0.45576,0.369281 l 0.73622,1.390647 v 0.03272 h -0.75258 z m -0.5586,-0.567945 h 0.56561 q 0.2641,0 0.40901,-0.133222 0.14491,-0.135558 0.14491,-0.371618 0,-0.240734 -0.1379,-0.37863 -0.13556,-0.137896 -0.41836,-0.137896 h -0.56327 z" style="font-style:normal;font-variant:normal;font-weight:bold;font-stretch:normal;font-size:4.78663px;font-family:Roboto;-inkscape-font-specification:'Roboto Bold';text-align:center;text-anchor:middle;fill:#000000;fill-opacity:1;stroke-width:0.179497" id="path873"></path>
      <path d="m -102.61251,-94.254755 h -1.22938 l -0.23372,0.701166 h -0.74558 l 1.26678,-3.402995 h 0.64975 l 1.27378,3.402995 h -0.74557 z m -1.04006,-0.567945 h 0.85074 l -0.42771,-1.273786 z" style="font-style:normal;font-variant:normal;font-weight:bold;font-stretch:normal;font-size:4.78663px;font-family:Roboto;-inkscape-font-specification:'Roboto Bold';text-align:center;text-anchor:middle;fill:#000000;fill-opacity:1;stroke-width:0.179497" id="path875"></path>
      <path d="m -100.10953,-93.553589 h -0.70117 v -3.402995 h 0.70117 z" style="font-style:normal;font-variant:normal;font-weight:bold;font-stretch:normal;font-size:4.78663px;font-family:Roboto;-inkscape-font-specification:'Roboto Bold';text-align:center;text-anchor:middle;fill:#000000;fill-opacity:1;stroke-width:0.179497" id="path877"></path>
      <path d="m -96.234599,-93.553589 h -0.701167 l -1.364937,-2.239058 v 2.239058 h -0.701167 v -3.402995 h 0.701167 l 1.367274,2.243733 v -2.243733 h 0.69883 z" style="font-style:normal;font-variant:normal;font-weight:bold;font-stretch:normal;font-size:4.78663px;font-family:Roboto;-inkscape-font-specification:'Roboto Bold';text-align:center;text-anchor:middle;fill:#000000;fill-opacity:1;stroke-width:0.179497" id="path879"></path>
    </g>
    <g id="g1389" transform="matrix(-0.63342101,0,0,-0.63342101,37.62095,-85.420179)" style="fill:#000000;fill-opacity:1">
      <path id="path1375" style="fill:#000000;fill-opacity:1;stroke:none;stroke-width:0.0607734;stroke-linejoin:round;stroke-miterlimit:4;stroke-dasharray:none;stroke-dashoffset:0;stroke-opacity:0.8" d="M 287.21337,18.94343 V 18.713553 16.80624 h -1.85584 v 0.39282 h -0.70893 v -0.39282 h -0.84945 v 1.12923 h -1.08722 v -1.12923 h -1.38407 v 0.753134 h -0.8924 V 16.80624 h -0.77555 v 1.480377 h -2.33773 -0.7045 v -0.676725 -3.136321 -1.217342 h 0.7045 v 1.217342 h 0.22263 c -6.7e-4,-0.0077 -4.8e-4,-0.01624 -7.5e-4,-0.02439 -10e-4,-0.02028 -10e-4,-0.04041 -0.002,-0.06069 -1.6e-4,-0.01018 -7.5e-4,-0.02043 -7.5e-4,-0.03061 0,-0.0052 7.5e-4,-0.0107 7.5e-4,-0.01616 3.3e-4,-0.04348 0.002,-0.08705 0.006,-0.130421 7.5e-4,-0.01115 0.002,-0.02238 0.004,-0.03345 0.004,-0.04078 0.0108,-0.08133 0.0186,-0.121577 0.003,-0.01354 0.006,-0.02701 0.008,-0.04048 0.008,-0.03824 0.018,-0.07618 0.029,-0.113682 0.004,-0.0116 0.007,-0.02327 0.0107,-0.03472 4.8e-4,-7.48e-4 10e-4,-0.0037 10e-4,-0.0045 0.0116,-0.03562 0.0245,-0.07079 0.0385,-0.105473 0.006,-0.01384 0.0114,-0.02746 0.0174,-0.04108 0.0147,-0.03322 0.0305,-0.06607 0.0474,-0.09821 0.007,-0.01295 0.0137,-0.02582 0.0209,-0.03861 0.0196,-0.03517 0.0406,-0.06967 0.0629,-0.103258 0.004,-0.0067 0.01,-0.01429 0.0145,-0.02148 0.0231,-0.03375 0.0476,-0.06638 0.0733,-0.09821 0.007,-0.0092 0.0148,-0.01818 0.0224,-0.02709 0.0263,-0.0312 0.0538,-0.06151 0.0824,-0.09063 0.005,-0.0052 0.0102,-0.01055 0.0155,-0.01579 0.0312,-0.03083 0.0636,-0.06031 0.0973,-0.08842 l 0.001,-7.48e-4 c 0.007,-0.0052 0.0135,-0.01093 0.0202,-0.01646 0.0326,-0.02634 0.0661,-0.05148 0.10073,-0.07515 0.005,-0.0037 0.0105,-0.0067 0.0158,-0.0107 4.9e-4,-3.22e-4 7.5e-4,-6.06e-4 10e-4,-7.48e-4 0.0351,-0.02335 0.0712,-0.0452 0.108,-0.0657 l 0.002,-7.49e-4 c 0.009,-0.0052 0.0178,-0.0097 0.0269,-0.01459 0.0367,-0.01938 0.0741,-0.03749 0.1121,-0.05403 0.0106,-0.0052 0.0212,-0.0093 0.0319,-0.01354 0.0379,-0.01542 0.0763,-0.02941 0.11526,-0.04198 0.008,-0.0022 0.0162,-0.0052 0.0243,-0.0077 l 0.001,-3.29e-4 c 0.0443,-0.01347 0.0892,-0.02499 0.13453,-0.03442 0.004,-7.48e-4 0.009,-0.0015 0.0129,-0.0022 0.048,-0.0097 0.0963,-0.01714 0.14494,-0.02237 l 0.002,-3.29e-4 c 0.004,-3.15e-4 0.007,-6.07e-4 0.0107,-7.49e-4 0.0521,-0.0052 0.10432,-0.0077 0.15662,-0.0077 h 7.5e-4 c 0.0506,1.5e-5 0.10119,0.0022 0.15158,0.0067 h 0.001 c 0.002,9.7e-5 0.002,1.49e-4 0.003,3.14e-4 0.0486,0.0052 0.097,0.0119 0.14493,0.02118 l 10e-4,3.21e-4 c 7.5e-4,1.5e-4 0.002,4.94e-4 0.002,6.14e-4 0.0454,0.0088 0.0904,0.01975 0.13484,0.03248 0.006,0.0015 0.0116,0.0037 0.0174,0.0052 0.0423,0.01272 0.084,0.02709 0.12505,0.04325 0.004,0.0015 0.008,0.0037 0.012,0.0052 0.0409,0.01646 0.081,0.03457 0.12031,0.05433 0.004,0.0015 0.008,0.0037 0.0117,0.0052 h 3.2e-4 c 0.0417,0.02148 0.0825,0.04467 0.12221,0.06982 0.0822,0.05171 0.15942,0.110786 0.23084,0.176524 0.0357,0.03278 0.0698,0.06727 0.1023,0.103258 0.0326,0.03592 0.0634,0.07333 0.0925,0.112103 0.0293,0.03891 0.0568,0.07918 0.0824,0.120626 0.0257,0.04168 0.0495,0.08459 0.0714,0.128521 0.0219,0.04408 0.0417,0.08921 0.0593,0.135158 0.006,0.01504 0.01,0.0306 0.0152,0.04572 h 0.66155 c 0.005,-0.01519 0.009,-0.03068 0.0152,-0.04572 0.0177,-0.04602 0.0375,-0.09104 0.0593,-0.135158 0.0218,-0.04392 0.0456,-0.0868 0.0714,-0.128521 0.0256,-0.04146 0.0531,-0.08167 0.0824,-0.120626 0.0291,-0.03876 0.06,-0.07618 0.0925,-0.112103 0.0325,-0.03592 0.0667,-0.07041 0.10231,-0.103258 0.0357,-0.03285 0.0729,-0.06398 0.11147,-0.09348 0.0382,-0.02926 0.0777,-0.0568 0.11842,-0.08245 l 3.2e-4,-3.22e-4 c 4.9e-4,-3.29e-4 0.002,-6.13e-4 0.002,-7.48e-4 0.0397,-0.02499 0.0805,-0.04804 0.1222,-0.06952 0.003,-7.48e-4 0.005,-0.0037 0.008,-0.0045 0.0406,-0.02028 0.082,-0.03876 0.12411,-0.05552 0.003,-7.48e-4 0.006,-0.0022 0.009,-0.0037 l 7.5e-4,-3.22e-4 c 0.0429,-0.01691 0.0865,-0.03203 0.13073,-0.04512 0.004,-7.48e-4 0.008,-0.0015 0.0114,-0.0037 0.0457,-0.01325 0.0919,-0.0244 0.13862,-0.03345 0.0482,-0.0093 0.0967,-0.01631 0.14557,-0.02118 0.003,-3.22e-4 0.006,-6.14e-4 0.009,-7.48e-4 0.0495,-0.0052 0.0991,-0.0067 0.14874,-0.0067 h 6.7e-4 3.3e-4 c 0.0498,-1.5e-5 0.0997,0.0022 0.14936,0.0067 0.002,1.04e-4 0.003,1.57e-4 0.004,3.29e-4 7.5e-4,6.7e-5 0.002,1.42e-4 0.002,3.14e-4 0.0475,0.0052 0.0949,0.0116 0.14178,0.0205 0.004,6.13e-4 0.009,0.0015 0.0132,0.0022 0.0415,0.0086 0.0827,0.01833 0.12347,0.03001 0.0109,0.0037 0.0217,0.0067 0.0326,0.0098 0.0348,0.01063 0.0693,0.02237 0.10326,0.03532 0.001,4.94e-4 0.002,7.48e-4 0.004,0.0015 0.01,0.0037 0.0194,0.0077 0.029,0.0113 0.0345,0.01414 0.0686,0.02948 0.102,0.04609 0.0117,0.0052 0.0232,0.01167 0.0347,0.01766 0.0333,0.01736 0.0659,0.03592 0.0979,0.0556 l 0.001,7.48e-4 c 0.008,0.0052 0.0158,0.01003 0.0236,0.01519 0.0323,0.02073 0.0638,0.04265 0.0944,0.0657 0.006,0.0052 0.0127,0.0094 0.0189,0.01422 4.8e-4,4.79e-4 7.4e-4,6.14e-4 0.001,7.48e-4 0.0304,0.02365 0.0599,0.04842 0.0884,0.07423 0.009,0.0077 0.0174,0.01564 0.0259,0.02365 0.0274,0.02582 0.0538,0.0526 0.0793,0.08021 0.008,0.0086 0.015,0.01654 0.0224,0.02499 4.8e-4,4.87e-4 0.002,7.49e-4 0.002,0.0015 0.0233,0.02642 0.0457,0.05358 0.0673,0.0815 0.008,0.01003 0.0153,0.02005 0.0227,0.03031 0.0222,0.03023 0.0434,0.06114 0.0634,0.09285 0.007,0.0113 0.014,0.0229 0.0209,0.03442 4.8e-4,6.07e-4 7.5e-4,7.49e-4 10e-4,0.0022 0.0161,0.02709 0.0314,0.05463 0.0458,0.0827 0.008,0.01564 0.0158,0.03143 0.0233,0.04737 0.0136,0.02858 0.0263,0.05747 0.0382,0.08684 0.006,0.01527 0.012,0.03061 0.0177,0.04617 0.003,0.0077 0.005,0.01519 0.008,0.02275 h 1.41438 v 0.708924 h -1.33513 c -0.004,0.03106 -0.007,0.06226 -0.0124,0.09316 -0.002,0.01115 -0.004,0.02215 -0.006,0.03322 -0.008,0.04101 -0.0178,0.08167 -0.029,0.121891 -0.003,0.01055 -0.006,0.0211 -0.009,0.03158 -0.0123,0.04116 -0.0263,0.08184 -0.042,0.121891 -0.004,0.0087 -0.007,0.01736 -0.0104,0.02589 -3.2e-4,6.06e-4 -3.2e-4,7.48e-4 -6.7e-4,0.0015 -0.0165,0.03951 -0.0161,0.03734 -0.0357,0.0755 l -6.6e-4,7.48e-4 c -0.002,0.0045 -0.004,0.0092 -0.006,0.01354 l 2.92128,6.14e-4 c 0.64535,0 1.16838,-0.523047 1.16839,-1.168389 h 0.68998 v 1.208812 h -0.33632 c -0.0307,0.775044 0.0607,1.281995 -0.36945,1.706476 h -0.38683 v 2.137198 z m -9.89119,-1.333538 h 1.71154 v -1.430166 h -1.71154 z m 3.30622,-2.550559 h 0.76419 c -0.092,-0.175035 -0.14971,-0.324972 -0.1721,-0.520398 h -0.50209 c -0.007,0.05702 -0.0135,0.114139 -0.0262,0.170201 -0.0163,0.07229 -0.0376,0.143464 -0.0638,0.212839 z m 6.37813,-0.255454 c -0.56212,-0.0015 -1.01681,-0.458491 -1.01681,-1.020615 1e-5,-0.563619 0.45699,-1.020277 1.02061,-1.020284 0.56362,7e-6 1.02059,0.456665 1.0206,1.020284 -1e-5,0.56362 -0.45698,1.020615 -1.0206,1.020615 -0.001,0 -0.002,0 -0.004,0 z" sodipodi:nodetypes="cccccccccccccccccccccccccccscccccccsccccccsccscccssccccscscccccccssccccccscccsccccccccsccsccccccccccsccccccccscscccccccsccccccsscccccccsccsccccsccccscscccccccccccccccccccccccccccccscsscc"></path>
      <path id="path1377" style="fill:#000000;fill-opacity:1;stroke:none;stroke-width:0.999999px;stroke-linecap:butt;stroke-linejoin:miter;stroke-opacity:1" d="m 850.50781,729.61133 v 12.1875 h 1.97657 v 1.23047 h 21.42578 v -1.23047 h 1.97851 v -12.1875 z m 3.49414,3.80112 h 18.16993 v 0.90786 h -18.16993 z" transform="matrix(0.26458333,0,0,0.26458333,44.126888,-179.78696)" sodipodi:nodetypes="cccccccccccccc"></path>
      <path id="path1379" style="fill:#000000;fill-opacity:1;stroke:none;stroke-width:0.0304757;stroke-linejoin:round;stroke-miterlimit:4;stroke-dasharray:none;stroke-dashoffset:0;stroke-opacity:0.8" d="m 275.12287,13.834762 c -0.28188,-7.53e-4 -0.50989,-0.229916 -0.50989,-0.5118 0,-0.282634 0.22916,-0.511631 0.5118,-0.511635 0.28263,4e-6 0.51179,0.229001 0.51179,0.511635 0,0.282633 -0.22916,0.5118 -0.51179,0.5118 h -0.002 z" sodipodi:nodetypes="cscsscc"></path>
      <path id="path1381" style="fill:#000000;fill-opacity:1;stroke:none;stroke-width:0.0304757;stroke-linejoin:round;stroke-miterlimit:4;stroke-dasharray:none;stroke-dashoffset:0;stroke-opacity:0.8" d="m 274.06453,13.834762 c -0.28188,-7.53e-4 -0.50989,-0.229916 -0.50989,-0.5118 0,-0.282634 0.22916,-0.511631 0.5118,-0.511635 0.28263,4e-6 0.51179,0.229001 0.51179,0.511635 0,0.282633 -0.22916,0.5118 -0.51179,0.5118 h -0.002 z" sodipodi:nodetypes="cscsscc"></path>
      <path id="path1383" style="fill:#000000;fill-opacity:1;stroke:none;stroke-width:0.0304757;stroke-linejoin:round;stroke-miterlimit:4;stroke-dasharray:none;stroke-dashoffset:0;stroke-opacity:0.8" d="m 270.93964,13.834762 c -0.28188,-7.53e-4 -0.50989,-0.229916 -0.50989,-0.5118 0,-0.282634 0.22916,-0.511631 0.5118,-0.511635 0.28263,4e-6 0.51179,0.229001 0.51179,0.511635 0,0.282633 -0.22916,0.5118 -0.51179,0.5118 h -0.002 z" sodipodi:nodetypes="cscsscc"></path>
      <path id="path1385" style="fill:#000000;fill-opacity:1;stroke:none;stroke-width:0.0304757;stroke-linejoin:round;stroke-miterlimit:4;stroke-dasharray:none;stroke-dashoffset:0;stroke-opacity:0.8" d="m 269.8813,13.834762 c -0.28188,-7.53e-4 -0.50989,-0.229916 -0.50989,-0.5118 0,-0.282634 0.22916,-0.511631 0.5118,-0.511635 0.28263,4e-6 0.51179,0.229001 0.51179,0.511635 0,0.282633 -0.22916,0.5118 -0.51179,0.5118 h -0.002 z" sodipodi:nodetypes="cscsscc"></path>
      <path style="fill:#000000;fill-opacity:1;stroke:none;stroke-width:0.264583px;stroke-linecap:butt;stroke-linejoin:miter;stroke-opacity:1" d="m 274.90496,16.571669 -0.56696,0.543341 -0.51972,-0.09449 -0.47247,0.425223 -0.66146,-0.165365 -0.59058,0.307105 -0.75596,-0.377976 -0.49609,0.236236 -0.47247,-0.425223 -0.33073,-0.496093 z" id="path1387"></path>
    </g>
    <path style="color:#000000;font-style:normal;font-variant:normal;font-weight:normal;font-stretch:normal;font-size:medium;line-height:normal;font-family:sans-serif;font-variant-ligatures:normal;font-variant-position:normal;font-variant-caps:normal;font-variant-numeric:normal;font-variant-alternates:normal;font-variant-east-asian:normal;font-feature-settings:normal;font-variation-settings:normal;text-indent:0;text-align:start;text-decoration:none;text-decoration-line:none;text-decoration-style:solid;text-decoration-color:#000000;letter-spacing:normal;word-spacing:normal;text-transform:none;writing-mode:lr-tb;direction:ltr;text-orientation:mixed;dominant-baseline:auto;baseline-shift:baseline;text-anchor:start;white-space:normal;shape-padding:0;shape-margin:0;inline-size:0;clip-rule:nonzero;display:inline;overflow:visible;visibility:visible;isolation:auto;mix-blend-mode:normal;color-interpolation:sRGB;color-interpolation-filters:linearRGB;solid-color:#000000;solid-opacity:1;vector-effect:none;fill:#000000;fill-opacity:1;fill-rule:nonzero;stroke:none;stroke-linecap:square;stroke-linejoin:miter;stroke-miterlimit:4;stroke-dasharray:none;stroke-dashoffset:0;stroke-opacity:1;color-rendering:auto;image-rendering:auto;shape-rendering:auto;text-rendering:auto;enable-background:accumulate;stop-color:#000000;stop-opacity:1;opacity:1" d="M -137.12891 -101.4375 L -137.12891 -101.22266 C -137.12888 -100.55461 -137.66208 -100.01467 -138.33008 -100.00781 C -138.33446 -100.00779 -138.33658 -100.00779 -138.3418 -100.00781 L -138.55859 -100.00977 L -138.55859 -98.621094 L -138.55859 -98.404297 L -138.12695 -98.404297 L -138.12695 -98.621094 L -138.12695 -99.658203 C -137.41635 -99.765353 -136.89514 -100.29677 -136.78711 -101.00586 L -86.833984 -101.00586 C -86.725951 -100.29677 -86.20475 -99.765352 -85.494141 -99.658203 L -85.494141 -98.621094 L -85.494141 -98.404297 L -85.0625 -98.404297 L -85.0625 -98.621094 L -85.0625 -100.00977 L -85.279297 -100.00781 C -85.283896 -100.00779 -85.286031 -100.00779 -85.291016 -100.00781 C -85.959017 -100.01467 -86.492211 -100.55461 -86.492188 -101.22266 L -86.492188 -101.4375 L -86.708984 -101.4375 L -86.923828 -101.4375 L -136.69727 -101.4375 L -136.91211 -101.4375 L -137.12891 -101.4375 z " id="path1391"></path>
    <path style="color:#000000;font-style:normal;font-variant:normal;font-weight:normal;font-stretch:normal;font-size:medium;line-height:normal;font-family:sans-serif;font-variant-ligatures:normal;font-variant-position:normal;font-variant-caps:normal;font-variant-numeric:normal;font-variant-alternates:normal;font-variant-east-asian:normal;font-feature-settings:normal;font-variation-settings:normal;text-indent:0;text-align:start;text-decoration:none;text-decoration-line:none;text-decoration-style:solid;text-decoration-color:#000000;letter-spacing:normal;word-spacing:normal;text-transform:none;writing-mode:lr-tb;direction:ltr;text-orientation:mixed;dominant-baseline:auto;baseline-shift:baseline;text-anchor:start;white-space:normal;shape-padding:0;shape-margin:0;inline-size:0;clip-rule:nonzero;display:inline;overflow:visible;visibility:visible;isolation:auto;mix-blend-mode:normal;color-interpolation:sRGB;color-interpolation-filters:linearRGB;solid-color:#000000;solid-opacity:1;vector-effect:none;fill:#000000;fill-opacity:1;fill-rule:nonzero;stroke:none;stroke-linecap:square;stroke-linejoin:miter;stroke-miterlimit:4;stroke-dasharray:none;stroke-dashoffset:0;stroke-opacity:1;color-rendering:auto;image-rendering:auto;shape-rendering:auto;text-rendering:auto;enable-background:accumulate;stop-color:#000000;stop-opacity:1;opacity:1" d="M -138.55859 -92.181641 L -138.55859 -91.964844 L -138.55859 -90.576172 L -138.3418 -90.578125 C -138.33656 -90.578149 -138.33448 -90.578148 -138.33008 -90.578125 C -137.66208 -90.571269 -137.12888 -90.031321 -137.12891 -89.363281 L -137.12891 -89.148438 L -136.69727 -89.148438 L -86.923828 -89.148438 L -86.708984 -89.148438 L -86.492188 -89.148438 L -86.492188 -89.363281 C -86.492211 -90.031321 -85.959017 -90.571269 -85.291016 -90.578125 C -85.286011 -90.578149 -85.283918 -90.578148 -85.279297 -90.578125 L -85.0625 -90.576172 L -85.0625 -91.964844 L -85.0625 -92.181641 L -85.494141 -92.181641 L -85.494141 -91.964844 L -85.494141 -90.925781 C -86.204686 -90.818579 -86.725959 -90.289122 -86.833984 -89.580078 L -136.78711 -89.580078 C -136.89513 -90.289122 -137.41641 -90.818579 -138.12695 -90.925781 L -138.12695 -91.964844 L -138.12695 -92.181641 L -138.55859 -92.181641 z " id="path1393"></path>
    <g aria-label="RENDRE PLUS BEAUX VOS PLANS DE VOYAGES" id="text1397" style="font-style:normal;font-weight:normal;font-size:3.3545px;line-height:1.25;font-family:sans-serif;letter-spacing:0.128028px;fill:#000000;fill-opacity:1;stroke:none;stroke-width:0.200745">
      <path d="m -145.44486,-86.94383 h 0.66664 q 0.23259,0 0.38983,0.0819 0.15888,0.0819 0.23914,0.242415 0.0819,0.15888 0.0819,0.391467 0,0.163794 -0.054,0.299743 -0.0541,0.134311 -0.15724,0.229312 -0.10319,0.09336 -0.25061,0.139224 l -0.0819,0.0344 h -0.59457 l -0.003,-0.257156 h 0.4275 q 0.13759,0 0.22931,-0.05897 0.0917,-0.0606 0.13759,-0.162156 0.0459,-0.101552 0.0459,-0.224398 0,-0.137587 -0.041,-0.240777 -0.0409,-0.10319 -0.13103,-0.15888 -0.0885,-0.05733 -0.23751,-0.05733 h -0.36526 v 2.126046 h -0.30138 z m 1.14492,2.38484 -0.475,-1.081041 0.31285,-0.0016 0.48483,1.063022 v 0.01966 z" style="font-style:normal;font-variant:normal;font-weight:normal;font-stretch:normal;font-size:3.3545px;font-family:'Roboto Condensed';-inkscape-font-specification:'Roboto Condensed, ';text-align:center;text-anchor:middle;fill:#000000;fill-opacity:1;stroke-width:0.200745" id="path882"></path>
      <path d="m -142.25552,-84.816147 v 0.257157 h -1.03518 v -0.257157 z m -0.98113,-2.127683 v 2.38484 h -0.30138 v -2.38484 z m 0.8419,1.02535 v 0.257156 h -0.89595 v -0.257156 z m 0.12285,-1.02535 v 0.258794 h -1.0188 v -0.258794 z" style="font-style:normal;font-variant:normal;font-weight:normal;font-stretch:normal;font-size:3.3545px;font-family:'Roboto Condensed';-inkscape-font-specification:'Roboto Condensed, ';text-align:center;text-anchor:middle;fill:#000000;fill-opacity:1;stroke-width:0.200745" id="path884"></path>
      <path d="m -140.18326,-86.94383 v 2.38484 h -0.30302 l -0.95492,-1.839407 v 1.839407 h -0.30138 v -2.38484 h 0.30138 l 0.95984,1.844319 v -1.844319 z" style="font-style:normal;font-variant:normal;font-weight:normal;font-stretch:normal;font-size:3.3545px;font-family:'Roboto Condensed';-inkscape-font-specification:'Roboto Condensed, ';text-align:center;text-anchor:middle;fill:#000000;fill-opacity:1;stroke-width:0.200745" id="path886"></path>
      <path d="m -138.99548,-84.55899 h -0.40621 l 0.003,-0.257157 h 0.40294 q 0.21457,0 0.34888,-0.0819 0.13431,-0.08353 0.19819,-0.245691 0.0639,-0.163794 0.0639,-0.404571 v -0.407847 q 0,-0.190001 -0.036,-0.327588 -0.036,-0.137587 -0.1081,-0.226035 -0.0721,-0.08845 -0.18181,-0.131036 -0.10974,-0.04422 -0.25716,-0.04422 h -0.44224 v -0.258794 h 0.44224 q 0.20147,0 0.36362,0.06388 0.16216,0.06224 0.27845,0.188363 0.1163,0.124484 0.1769,0.309571 0.0622,0.185087 0.0622,0.42914 v 0.404571 q 0,0.244053 -0.0622,0.42914 -0.0606,0.185087 -0.17853,0.309571 -0.11794,0.124483 -0.28664,0.188363 -0.16707,0.06224 -0.38164,0.06224 z m -0.23914,-2.38484 v 2.38484 h -0.30138 v -2.38484 z" style="font-style:normal;font-variant:normal;font-weight:normal;font-stretch:normal;font-size:3.3545px;font-family:'Roboto Condensed';-inkscape-font-specification:'Roboto Condensed, ';text-align:center;text-anchor:middle;fill:#000000;fill-opacity:1;stroke-width:0.200745" id="path888"></path>
      <path d="m -137.49159,-86.94383 h 0.66665 q 0.23258,0 0.38982,0.0819 0.15888,0.0819 0.23914,0.242415 0.0819,0.15888 0.0819,0.391467 0,0.163794 -0.054,0.299743 -0.0541,0.134311 -0.15724,0.229312 -0.10319,0.09336 -0.25061,0.139224 l -0.0819,0.0344 h -0.59457 l -0.003,-0.257156 h 0.4275 q 0.13759,0 0.22931,-0.05897 0.0917,-0.0606 0.13759,-0.162156 0.0459,-0.101552 0.0459,-0.224398 0,-0.137587 -0.041,-0.240777 -0.0409,-0.10319 -0.13103,-0.15888 -0.0885,-0.05733 -0.2375,-0.05733 h -0.36527 v 2.126046 h -0.30138 z m 1.14492,2.38484 -0.475,-1.081041 0.31285,-0.0016 0.48483,1.063022 v 0.01966 z" style="font-style:normal;font-variant:normal;font-weight:normal;font-stretch:normal;font-size:3.3545px;font-family:'Roboto Condensed';-inkscape-font-specification:'Roboto Condensed, ';text-align:center;text-anchor:middle;fill:#000000;fill-opacity:1;stroke-width:0.200745" id="path890"></path>
      <path d="m -134.30225,-84.816147 v 0.257157 h -1.03518 v -0.257157 z m -0.98113,-2.127683 v 2.38484 h -0.30138 v -2.38484 z m 0.84191,1.02535 v 0.257156 h -0.89596 v -0.257156 z m 0.12284,-1.02535 v 0.258794 h -1.0188 v -0.258794 z" style="font-style:normal;font-variant:normal;font-weight:normal;font-stretch:normal;font-size:3.3545px;font-family:'Roboto Condensed';-inkscape-font-specification:'Roboto Condensed, ';text-align:center;text-anchor:middle;fill:#000000;fill-opacity:1;stroke-width:0.200745" id="path892"></path>
      <path d="m -132.13144,-85.494254 h -0.52087 v -0.257156 h 0.52087 q 0.14741,0 0.2375,-0.05897 0.0917,-0.05897 0.13267,-0.163794 0.0426,-0.104828 0.0426,-0.239139 0,-0.122846 -0.0426,-0.23095 -0.041,-0.108104 -0.13267,-0.173621 -0.0901,-0.06716 -0.2375,-0.06716 h -0.45863 v 2.126046 h -0.30138 v -2.38484 h 0.76001 q 0.23095,0 0.38983,0.09336 0.15888,0.09336 0.24077,0.258795 0.0835,0.163794 0.0835,0.375088 0,0.229311 -0.0835,0.391467 -0.0819,0.162156 -0.24077,0.247329 -0.15888,0.08353 -0.38983,0.08353 z" style="font-style:normal;font-variant:normal;font-weight:normal;font-stretch:normal;font-size:3.3545px;font-family:'Roboto Condensed';-inkscape-font-specification:'Roboto Condensed, ';text-align:center;text-anchor:middle;fill:#000000;fill-opacity:1;stroke-width:0.200745" id="path894"></path>
      <path d="m -129.66771,-84.816147 v 0.257157 h -0.98932 v -0.257157 z m -0.93527,-2.127683 v 2.38484 h -0.30138 v -2.38484 z" style="font-style:normal;font-variant:normal;font-weight:normal;font-stretch:normal;font-size:3.3545px;font-family:'Roboto Condensed';-inkscape-font-specification:'Roboto Condensed, ';text-align:center;text-anchor:middle;fill:#000000;fill-opacity:1;stroke-width:0.200745" id="path896"></path>
      <path d="m -128.14744,-86.94383 h 0.30138 v 1.678888 q 0,0.268622 -0.10319,0.430778 -0.10319,0.162156 -0.27189,0.235863 -0.16707,0.07207 -0.36035,0.07207 -0.20638,0 -0.37181,-0.07207 -0.16543,-0.07371 -0.26371,-0.235863 -0.0966,-0.162156 -0.0966,-0.430778 v -1.678888 h 0.29974 v 1.678888 q 0,0.186725 0.0524,0.291553 0.054,0.104828 0.15069,0.147414 0.0983,0.04259 0.22931,0.04259 0.13267,0 0.22931,-0.04259 0.0983,-0.04259 0.15069,-0.147414 0.0541,-0.104828 0.0541,-0.291553 z" style="font-style:normal;font-variant:normal;font-weight:normal;font-stretch:normal;font-size:3.3545px;font-family:'Roboto Condensed';-inkscape-font-specification:'Roboto Condensed, ';text-align:center;text-anchor:middle;fill:#000000;fill-opacity:1;stroke-width:0.200745" id="path898"></path>
      <path d="m -126.2144,-85.161752 q 0,-0.08353 -0.0196,-0.147415 -0.0197,-0.06552 -0.0688,-0.117931 -0.0491,-0.05241 -0.13758,-0.09991 -0.0884,-0.0475 -0.2244,-0.09664 -0.14742,-0.05241 -0.26698,-0.116294 -0.11957,-0.06552 -0.20475,-0.149052 -0.0835,-0.08353 -0.12939,-0.191639 -0.0459,-0.108104 -0.0459,-0.247329 0,-0.139225 0.0475,-0.257157 0.0491,-0.117931 0.13759,-0.204742 0.0901,-0.08845 0.21621,-0.137587 0.12612,-0.04914 0.28172,-0.04914 0.23259,0 0.39147,0.10319 0.16052,0.101552 0.24242,0.266984 0.0819,0.163794 0.0819,0.350519 h -0.30138 q 0,-0.134311 -0.0442,-0.237501 -0.0426,-0.104828 -0.13431,-0.163794 -0.0901,-0.0606 -0.23587,-0.0606 -0.13103,0 -0.2162,0.05078 -0.0835,0.05078 -0.12449,0.137587 -0.0393,0.08681 -0.0393,0.198191 0,0.07534 0.0262,0.137587 0.0262,0.0606 0.0803,0.113018 0.0557,0.05241 0.13758,0.09664 0.0835,0.04422 0.19656,0.08517 0.17526,0.05733 0.29974,0.127759 0.12448,0.07043 0.20311,0.15888 0.0786,0.08681 0.11465,0.198191 0.0377,0.109742 0.0377,0.248967 0,0.145777 -0.0491,0.263708 -0.0475,0.117932 -0.13923,0.201467 -0.0917,0.08353 -0.22112,0.129397 -0.1294,0.04422 -0.29155,0.04422 -0.14087,0 -0.27682,-0.04586 -0.13431,-0.04586 -0.24405,-0.137587 -0.10974,-0.09172 -0.17526,-0.226036 -0.0655,-0.135949 -0.0655,-0.314484 h 0.30138 q 0,0.122846 0.036,0.211294 0.036,0.08681 0.0999,0.144139 0.0639,0.05733 0.14578,0.08517 0.0835,0.02621 0.17854,0.02621 0.13103,0 0.21948,-0.04586 0.0901,-0.04586 0.13431,-0.131036 0.0459,-0.08517 0.0459,-0.201466 z" style="font-style:normal;font-variant:normal;font-weight:normal;font-stretch:normal;font-size:3.3545px;font-family:'Roboto Condensed';-inkscape-font-specification:'Roboto Condensed, ';text-align:center;text-anchor:middle;fill:#000000;fill-opacity:1;stroke-width:0.200745" id="path900"></path>
      <path d="m -123.77005,-85.674427 h -0.48483 l -0.003,-0.253881 h 0.45043 q 0.10156,0 0.18018,-0.04586 0.0786,-0.04586 0.12284,-0.131035 0.0459,-0.08681 0.0459,-0.206381 0,-0.131035 -0.0393,-0.212932 -0.0377,-0.08353 -0.11629,-0.121207 -0.077,-0.03931 -0.19655,-0.03931 h -0.38001 v 2.126046 h -0.30138 v -2.38484 h 0.68139 q 0.15396,0 0.27517,0.03767 0.12121,0.03603 0.20474,0.114656 0.0852,0.07698 0.1294,0.196553 0.0442,0.119569 0.0442,0.286639 0,0.147415 -0.0671,0.266984 -0.0655,0.117932 -0.18345,0.193277 -0.11793,0.07534 -0.2719,0.09664 z m -0.0115,1.115437 h -0.59785 l 0.17526,-0.257157 h 0.42259 q 0.11793,0 0.19983,-0.05241 0.0819,-0.05241 0.12448,-0.147415 0.0442,-0.09664 0.0442,-0.227673 0,-0.132673 -0.036,-0.229312 -0.036,-0.09664 -0.11465,-0.149052 -0.0786,-0.05241 -0.20638,-0.05241 h -0.3882 l 0.003,-0.253881 h 0.52414 l 0.0672,0.09172 q 0.14741,0.01474 0.24732,0.09828 0.10156,0.0819 0.15233,0.209656 0.0524,0.12776 0.0524,0.281726 0,0.22276 -0.0835,0.376726 -0.0819,0.152328 -0.23259,0.232587 -0.15069,0.07862 -0.35379,0.07862 z" style="font-style:normal;font-variant:normal;font-weight:normal;font-stretch:normal;font-size:3.3545px;font-family:'Roboto Condensed';-inkscape-font-specification:'Roboto Condensed, ';text-align:center;text-anchor:middle;fill:#000000;fill-opacity:1;stroke-width:0.200745" id="path902"></path>
      <path d="m -121.25064,-84.816147 v 0.257157 h -1.03517 v -0.257157 z m -0.98112,-2.127683 v 2.38484 h -0.30138 v -2.38484 z m 0.8419,1.02535 v 0.257156 h -0.89595 v -0.257156 z m 0.12285,-1.02535 v 0.258794 h -1.0188 v -0.258794 z" style="font-style:normal;font-variant:normal;font-weight:normal;font-stretch:normal;font-size:3.3545px;font-family:'Roboto Condensed';-inkscape-font-specification:'Roboto Condensed, ';text-align:center;text-anchor:middle;fill:#000000;fill-opacity:1;stroke-width:0.200745" id="path904"></path>
      <path d="m -119.96458,-86.732536 -0.6519,2.173546 h -0.30794 l 0.7682,-2.38484 h 0.19327 z m 0.52741,2.173546 -0.6519,-2.173546 -0.003,-0.211294 h 0.19491 l 0.76819,2.38484 z m 0,-0.88285 v 0.258795 h -1.14983 v -0.258795 z" style="font-style:normal;font-variant:normal;font-weight:normal;font-stretch:normal;font-size:3.3545px;font-family:'Roboto Condensed';-inkscape-font-specification:'Roboto Condensed, ';text-align:center;text-anchor:middle;fill:#000000;fill-opacity:1;stroke-width:0.200745" id="path906"></path>
      <path d="m -117.58111,-86.94383 h 0.30138 v 1.678888 q 0,0.268622 -0.10319,0.430778 -0.10319,0.162156 -0.2719,0.235863 -0.16707,0.07207 -0.36035,0.07207 -0.20638,0 -0.37181,-0.07207 -0.16543,-0.07371 -0.26371,-0.235863 -0.0966,-0.162156 -0.0966,-0.430778 v -1.678888 h 0.29975 v 1.678888 q 0,0.186725 0.0524,0.291553 0.054,0.104828 0.15069,0.147414 0.0983,0.04259 0.22931,0.04259 0.13268,0 0.22931,-0.04259 0.0983,-0.04259 0.15069,-0.147414 0.0541,-0.104828 0.0541,-0.291553 z" style="font-style:normal;font-variant:normal;font-weight:normal;font-stretch:normal;font-size:3.3545px;font-family:'Roboto Condensed';-inkscape-font-specification:'Roboto Condensed, ';text-align:center;text-anchor:middle;fill:#000000;fill-opacity:1;stroke-width:0.200745" id="path908"></path>
      <path d="m -116.47196,-86.94383 0.45207,0.91397 0.4488,-0.91397 h 0.35052 l -0.62078,1.180954 0.63388,1.203886 h -0.3538 l -0.45862,-0.931988 -0.46026,0.931988 h -0.35543 l 0.63552,-1.203886 -0.62242,-1.180954 z" style="font-style:normal;font-variant:normal;font-weight:normal;font-stretch:normal;font-size:3.3545px;font-family:'Roboto Condensed';-inkscape-font-specification:'Roboto Condensed, ';text-align:center;text-anchor:middle;fill:#000000;fill-opacity:1;stroke-width:0.200745" id="path910"></path>
      <path d="m -113.16115,-84.920975 0.57328,-2.022855 h 0.32759 l -0.74035,2.38484 h -0.23095 z m -0.51431,-2.022855 0.56837,2.022855 0.0753,0.361985 h -0.23095 l -0.74035,-2.38484 z" style="font-style:normal;font-variant:normal;font-weight:normal;font-stretch:normal;font-size:3.3545px;font-family:'Roboto Condensed';-inkscape-font-specification:'Roboto Condensed, ';text-align:center;text-anchor:middle;fill:#000000;fill-opacity:1;stroke-width:0.200745" id="path912"></path>
      <path d="m -110.2781,-85.957791 v 0.414399 q 0,0.252243 -0.0557,0.443881 -0.0541,0.190001 -0.15888,0.317761 -0.10483,0.127759 -0.25225,0.191639 -0.14741,0.06388 -0.3325,0.06388 -0.17853,0 -0.32595,-0.06388 -0.14741,-0.06388 -0.25388,-0.191639 -0.10646,-0.12776 -0.16543,-0.317761 -0.0573,-0.191638 -0.0573,-0.443881 v -0.414399 q 0,-0.252242 0.0573,-0.442243 0.0573,-0.191639 0.16379,-0.319399 0.10647,-0.127759 0.25389,-0.191639 0.14741,-0.06552 0.32594,-0.06552 0.18509,0 0.33251,0.06552 0.14905,0.06388 0.25224,0.191639 0.10483,0.12776 0.16052,0.319399 0.0557,0.190001 0.0557,0.442243 z m -0.29811,0.414399 v -0.417675 q 0,-0.196552 -0.0328,-0.337415 -0.0328,-0.142501 -0.0966,-0.232588 -0.0639,-0.09009 -0.15725,-0.132673 -0.0934,-0.04422 -0.21621,-0.04422 -0.11629,0 -0.20965,0.04422 -0.0917,0.04259 -0.15724,0.132673 -0.0655,0.09009 -0.10156,0.232588 -0.0344,0.140863 -0.0344,0.337415 v 0.417675 q 0,0.198191 0.0344,0.340691 0.036,0.140863 0.10156,0.232588 0.0671,0.09009 0.16051,0.134311 0.0934,0.04259 0.20802,0.04259 0.12285,0 0.21621,-0.04259 0.095,-0.04422 0.15724,-0.134311 0.0639,-0.09172 0.095,-0.232588 0.0328,-0.1425 0.0328,-0.340691 z" style="font-style:normal;font-variant:normal;font-weight:normal;font-stretch:normal;font-size:3.3545px;font-family:'Roboto Condensed';-inkscape-font-specification:'Roboto Condensed, ';text-align:center;text-anchor:middle;fill:#000000;fill-opacity:1;stroke-width:0.200745" id="path914"></path>
      <path d="m -108.64153,-85.161752 q 0,-0.08353 -0.0197,-0.147415 -0.0197,-0.06552 -0.0688,-0.117931 -0.0491,-0.05241 -0.13759,-0.09991 -0.0884,-0.0475 -0.2244,-0.09664 -0.14741,-0.05241 -0.26698,-0.116294 -0.11957,-0.06552 -0.20474,-0.149052 -0.0835,-0.08353 -0.1294,-0.191639 -0.0459,-0.108104 -0.0459,-0.247329 0,-0.139225 0.0475,-0.257157 0.0491,-0.117931 0.13758,-0.204742 0.0901,-0.08845 0.21621,-0.137587 0.12612,-0.04914 0.28173,-0.04914 0.23258,0 0.39146,0.10319 0.16052,0.101552 0.24242,0.266984 0.0819,0.163794 0.0819,0.350519 h -0.30138 q 0,-0.134311 -0.0442,-0.237501 -0.0426,-0.104828 -0.13431,-0.163794 -0.0901,-0.0606 -0.23586,-0.0606 -0.13104,0 -0.21621,0.05078 -0.0835,0.05078 -0.12448,0.137587 -0.0393,0.08681 -0.0393,0.198191 0,0.07534 0.0262,0.137587 0.0262,0.0606 0.0803,0.113018 0.0557,0.05241 0.13759,0.09664 0.0835,0.04422 0.19655,0.08517 0.17526,0.05733 0.29974,0.127759 0.12449,0.07043 0.20311,0.15888 0.0786,0.08681 0.11465,0.198191 0.0377,0.109742 0.0377,0.248967 0,0.145777 -0.0491,0.263708 -0.0475,0.117932 -0.13923,0.201467 -0.0917,0.08353 -0.22112,0.129397 -0.1294,0.04422 -0.29155,0.04422 -0.14086,0 -0.27681,-0.04586 -0.13431,-0.04586 -0.24406,-0.137587 -0.10974,-0.09172 -0.17526,-0.226036 -0.0655,-0.135949 -0.0655,-0.314484 h 0.30138 q 0,0.122846 0.036,0.211294 0.036,0.08681 0.0999,0.144139 0.0639,0.05733 0.14577,0.08517 0.0835,0.02621 0.17854,0.02621 0.13103,0 0.21948,-0.04586 0.0901,-0.04586 0.13431,-0.131036 0.0459,-0.08517 0.0459,-0.201466 z" style="font-style:normal;font-variant:normal;font-weight:normal;font-stretch:normal;font-size:3.3545px;font-family:'Roboto Condensed';-inkscape-font-specification:'Roboto Condensed, ';text-align:center;text-anchor:middle;fill:#000000;fill-opacity:1;stroke-width:0.200745" id="path916"></path>
      <path d="m -106.15952,-85.494254 h -0.52086 v -0.257156 h 0.52086 q 0.14742,0 0.2375,-0.05897 0.0917,-0.05897 0.13268,-0.163794 0.0426,-0.104828 0.0426,-0.239139 0,-0.122846 -0.0426,-0.23095 -0.041,-0.108104 -0.13268,-0.173621 -0.0901,-0.06716 -0.2375,-0.06716 h -0.45862 v 2.126046 h -0.30138 v -2.38484 h 0.76 q 0.23095,0 0.38983,0.09336 0.15888,0.09336 0.24078,0.258795 0.0835,0.163794 0.0835,0.375088 0,0.229311 -0.0835,0.391467 -0.0819,0.162156 -0.24078,0.247329 -0.15888,0.08353 -0.38983,0.08353 z" style="font-style:normal;font-variant:normal;font-weight:normal;font-stretch:normal;font-size:3.3545px;font-family:'Roboto Condensed';-inkscape-font-specification:'Roboto Condensed, ';text-align:center;text-anchor:middle;fill:#000000;fill-opacity:1;stroke-width:0.200745" id="path918"></path>
      <path d="m -103.69579,-84.816147 v 0.257157 h -0.98932 v -0.257157 z m -0.93526,-2.127683 v 2.38484 h -0.30138 v -2.38484 z" style="font-style:normal;font-variant:normal;font-weight:normal;font-stretch:normal;font-size:3.3545px;font-family:'Roboto Condensed';-inkscape-font-specification:'Roboto Condensed, ';text-align:center;text-anchor:middle;fill:#000000;fill-opacity:1;stroke-width:0.200745" id="path920"></path>
      <path d="m -102.40483,-86.732536 -0.6519,2.173546 h -0.30793 l 0.7682,-2.38484 h 0.19327 z m 0.52742,2.173546 -0.6519,-2.173546 -0.003,-0.211294 h 0.19491 l 0.76819,2.38484 z m 0,-0.88285 v 0.258795 h -1.14983 v -0.258795 z" style="font-style:normal;font-variant:normal;font-weight:normal;font-stretch:normal;font-size:3.3545px;font-family:'Roboto Condensed';-inkscape-font-specification:'Roboto Condensed, ';text-align:center;text-anchor:middle;fill:#000000;fill-opacity:1;stroke-width:0.200745" id="path922"></path>
      <path d="m -99.556179,-86.94383 v 2.38484 h -0.303019 l -0.954922,-1.839407 v 1.839407 h -0.30138 v -2.38484 h 0.30138 l 0.959836,1.844319 v -1.844319 z" style="font-style:normal;font-variant:normal;font-weight:normal;font-stretch:normal;font-size:3.3545px;font-family:'Roboto Condensed';-inkscape-font-specification:'Roboto Condensed, ';text-align:center;text-anchor:middle;fill:#000000;fill-opacity:1;stroke-width:0.200745" id="path924"></path>
      <path d="m -97.865557,-85.161752 q 0,-0.08353 -0.01966,-0.147415 -0.01966,-0.06552 -0.06879,-0.117931 -0.04914,-0.05241 -0.137587,-0.09991 -0.08845,-0.0475 -0.224398,-0.09664 -0.147415,-0.05241 -0.266984,-0.116294 -0.11957,-0.06552 -0.204743,-0.149052 -0.08353,-0.08353 -0.129397,-0.191639 -0.04586,-0.108104 -0.04586,-0.247329 0,-0.139225 0.0475,-0.257157 0.04914,-0.117931 0.137587,-0.204742 0.09009,-0.08845 0.216208,-0.137587 0.126121,-0.04914 0.281726,-0.04914 0.232587,0 0.391467,0.10319 0.160518,0.101552 0.242415,0.266984 0.0819,0.163794 0.0819,0.350519 h -0.301381 q 0,-0.134311 -0.04422,-0.237501 -0.04259,-0.104828 -0.134311,-0.163794 -0.09009,-0.0606 -0.235863,-0.0606 -0.131036,0 -0.216208,0.05078 -0.08353,0.05078 -0.124484,0.137587 -0.03931,0.08681 -0.03931,0.198191 0,0.07534 0.02621,0.137587 0.02621,0.0606 0.08026,0.113018 0.05569,0.05241 0.137587,0.09664 0.08353,0.04422 0.196552,0.08517 0.17526,0.05733 0.299743,0.127759 0.124484,0.07043 0.203105,0.15888 0.07862,0.08681 0.114656,0.198191 0.03767,0.109742 0.03767,0.248967 0,0.145777 -0.04914,0.263708 -0.0475,0.117932 -0.139225,0.201467 -0.09172,0.08353 -0.221122,0.129397 -0.129397,0.04422 -0.291553,0.04422 -0.140863,0 -0.276812,-0.04586 -0.134311,-0.04586 -0.244053,-0.137587 -0.109742,-0.09172 -0.175259,-0.226036 -0.06552,-0.135949 -0.06552,-0.314484 h 0.301381 q 0,0.122846 0.03603,0.211294 0.03603,0.08681 0.09991,0.144139 0.06388,0.05733 0.145777,0.08517 0.08353,0.02621 0.178535,0.02621 0.131035,0 0.219484,-0.04586 0.09009,-0.04586 0.134311,-0.131036 0.04586,-0.08517 0.04586,-0.201466 z" style="font-style:normal;font-variant:normal;font-weight:normal;font-stretch:normal;font-size:3.3545px;font-family:'Roboto Condensed';-inkscape-font-specification:'Roboto Condensed, ';text-align:center;text-anchor:middle;fill:#000000;fill-opacity:1;stroke-width:0.200745" id="path926"></path>
      <path d="m -95.603023,-84.55899 h -0.406209 l 0.0033,-0.257157 h 0.402933 q 0.21457,0 0.348881,-0.0819 0.134311,-0.08353 0.198191,-0.245691 0.06388,-0.163794 0.06388,-0.404571 v -0.407847 q 0,-0.190001 -0.03604,-0.327588 -0.03603,-0.137587 -0.108104,-0.226035 -0.07207,-0.08845 -0.181811,-0.131036 -0.109742,-0.04422 -0.257156,-0.04422 h -0.442244 v -0.258794 h 0.442244 q 0.201466,0 0.363622,0.06388 0.162156,0.06224 0.27845,0.188363 0.116294,0.124484 0.176897,0.309571 0.06224,0.185087 0.06224,0.42914 v 0.404571 q 0,0.244053 -0.06224,0.42914 -0.0606,0.185087 -0.178535,0.309571 -0.117932,0.124483 -0.286639,0.188363 -0.16707,0.06224 -0.38164,0.06224 z m -0.239139,-2.38484 v 2.38484 h -0.301381 v -2.38484 z" style="font-style:normal;font-variant:normal;font-weight:normal;font-stretch:normal;font-size:3.3545px;font-family:'Roboto Condensed';-inkscape-font-specification:'Roboto Condensed, ';text-align:center;text-anchor:middle;fill:#000000;fill-opacity:1;stroke-width:0.200745" id="path928"></path>
      <path d="m -92.818259,-84.816147 v 0.257157 h -1.035177 v -0.257157 z m -0.981125,-2.127683 v 2.38484 h -0.301381 v -2.38484 z m 0.8419,1.02535 v 0.257156 h -0.895952 v -0.257156 z m 0.122846,-1.02535 v 0.258794 h -1.018798 v -0.258794 z" style="font-style:normal;font-variant:normal;font-weight:normal;font-stretch:normal;font-size:3.3545px;font-family:'Roboto Condensed';-inkscape-font-specification:'Roboto Condensed, ';text-align:center;text-anchor:middle;fill:#000000;fill-opacity:1;stroke-width:0.200745" id="path930"></path>
      <path d="m -90.75228,-84.920975 0.573279,-2.022855 h 0.327588 l -0.740349,2.38484 h -0.230949 z m -0.514313,-2.022855 0.568365,2.022855 0.07535,0.361985 h -0.23095 l -0.740349,-2.38484 z" style="font-style:normal;font-variant:normal;font-weight:normal;font-stretch:normal;font-size:3.3545px;font-family:'Roboto Condensed';-inkscape-font-specification:'Roboto Condensed, ';text-align:center;text-anchor:middle;fill:#000000;fill-opacity:1;stroke-width:0.200745" id="path932"></path>
      <path d="m -87.869236,-85.957791 v 0.414399 q 0,0.252243 -0.05569,0.443881 -0.05405,0.190001 -0.15888,0.317761 -0.104828,0.127759 -0.252243,0.191639 -0.147414,0.06388 -0.332501,0.06388 -0.178536,0 -0.32595,-0.06388 -0.147415,-0.06388 -0.253881,-0.191639 -0.106466,-0.12776 -0.165432,-0.317761 -0.05733,-0.191638 -0.05733,-0.443881 v -0.414399 q 0,-0.252242 0.05733,-0.442243 0.05733,-0.191639 0.163794,-0.319399 0.106466,-0.127759 0.253881,-0.191639 0.147414,-0.06552 0.32595,-0.06552 0.185087,0 0.332502,0.06552 0.149052,0.06388 0.252242,0.191639 0.104828,0.12776 0.160518,0.319399 0.05569,0.190001 0.05569,0.442243 z m -0.298105,0.414399 v -0.417675 q 0,-0.196552 -0.03276,-0.337415 -0.03276,-0.142501 -0.09664,-0.232588 -0.06388,-0.09009 -0.157242,-0.132673 -0.09336,-0.04422 -0.216208,-0.04422 -0.116294,0 -0.209656,0.04422 -0.09172,0.04259 -0.157243,0.132673 -0.06552,0.09009 -0.101552,0.232588 -0.0344,0.140863 -0.0344,0.337415 v 0.417675 q 0,0.198191 0.0344,0.340691 0.03603,0.140863 0.101552,0.232588 0.06716,0.09009 0.160518,0.134311 0.09336,0.04259 0.208019,0.04259 0.122845,0 0.216208,-0.04259 0.095,-0.04422 0.157242,-0.134311 0.06388,-0.09172 0.095,-0.232588 0.03276,-0.1425 0.03276,-0.340691 z" style="font-style:normal;font-variant:normal;font-weight:normal;font-stretch:normal;font-size:3.3545px;font-family:'Roboto Condensed';-inkscape-font-specification:'Roboto Condensed, ';text-align:center;text-anchor:middle;fill:#000000;fill-opacity:1;stroke-width:0.200745" id="path934"></path>
      <path d="m -87.212155,-86.94383 0.486468,1.197333 0.488106,-1.197333 h 0.340691 l -0.678107,1.4938 v 0.89104 h -0.30138 v -0.89104 l -0.678107,-1.4938 z" style="font-style:normal;font-variant:normal;font-weight:normal;font-stretch:normal;font-size:3.3545px;font-family:'Roboto Condensed';-inkscape-font-specification:'Roboto Condensed, ';text-align:center;text-anchor:middle;fill:#000000;fill-opacity:1;stroke-width:0.200745" id="path936"></path>
      <path d="m -84.838511,-86.732536 -0.6519,2.173546 h -0.307932 l 0.768193,-2.38484 h 0.193277 z m 0.527417,2.173546 -0.6519,-2.173546 -0.0033,-0.211294 h 0.194915 l 0.768193,2.38484 z m 0,-0.88285 v 0.258795 h -1.149834 v -0.258795 z" style="font-style:normal;font-variant:normal;font-weight:normal;font-stretch:normal;font-size:3.3545px;font-family:'Roboto Condensed';-inkscape-font-specification:'Roboto Condensed, ';text-align:center;text-anchor:middle;fill:#000000;fill-opacity:1;stroke-width:0.200745" id="path938"></path>
      <path d="m -82.073399,-85.746497 v 0.889402 q -0.03931,0.05241 -0.11957,0.131035 -0.07862,0.07862 -0.221121,0.139225 -0.142501,0.0606 -0.373451,0.0606 -0.185087,0 -0.339053,-0.06224 -0.152328,-0.06224 -0.263708,-0.186725 -0.109742,-0.126122 -0.170346,-0.312847 -0.0606,-0.188363 -0.0606,-0.440606 v -0.447157 q 0,-0.250605 0.05078,-0.438968 0.05078,-0.188363 0.150691,-0.312846 0.101552,-0.124484 0.250605,-0.186725 0.15069,-0.06224 0.350519,-0.06224 0.230949,0 0.393105,0.08681 0.162156,0.08681 0.250605,0.250604 0.09009,0.163794 0.101552,0.393106 h -0.301381 q -0.01147,-0.147415 -0.06224,-0.252243 -0.05078,-0.106466 -0.144138,-0.162156 -0.09336,-0.05733 -0.237501,-0.05733 -0.137587,0 -0.232588,0.04586 -0.095,0.04586 -0.155604,0.137587 -0.05897,0.09172 -0.08681,0.230949 -0.02621,0.139225 -0.02621,0.324312 v 0.450433 q 0,0.190001 0.03767,0.330864 0.03767,0.140863 0.106466,0.232588 0.07043,0.09172 0.168708,0.137586 0.09828,0.04422 0.221121,0.04422 0.139225,0 0.219484,-0.02948 0.08026,-0.02948 0.122846,-0.06716 0.04422,-0.03767 0.07043,-0.0606 v -0.550348 h -0.43733 v -0.255519 z" style="font-style:normal;font-variant:normal;font-weight:normal;font-stretch:normal;font-size:3.3545px;font-family:'Roboto Condensed';-inkscape-font-specification:'Roboto Condensed, ';text-align:center;text-anchor:middle;fill:#000000;fill-opacity:1;stroke-width:0.200745" id="path940"></path>
      <path d="m -80.174761,-84.816147 v 0.257157 h -1.035178 v -0.257157 z m -0.981126,-2.127683 v 2.38484 h -0.301381 v -2.38484 z m 0.841901,1.02535 v 0.257156 h -0.895953 v -0.257156 z m 0.122845,-1.02535 v 0.258794 h -1.018798 v -0.258794 z" style="font-style:normal;font-variant:normal;font-weight:normal;font-stretch:normal;font-size:3.3545px;font-family:'Roboto Condensed';-inkscape-font-specification:'Roboto Condensed, ';text-align:center;text-anchor:middle;fill:#000000;fill-opacity:1;stroke-width:0.200745" id="path942"></path>
      <path d="m -78.618452,-85.161752 q 0,-0.08353 -0.01966,-0.147415 -0.01966,-0.06552 -0.06879,-0.117931 -0.04914,-0.05241 -0.137587,-0.09991 -0.08845,-0.0475 -0.224397,-0.09664 -0.147415,-0.05241 -0.266985,-0.116294 -0.119569,-0.06552 -0.204742,-0.149052 -0.08353,-0.08353 -0.129397,-0.191639 -0.04586,-0.108104 -0.04586,-0.247329 0,-0.139225 0.0475,-0.257157 0.04914,-0.117931 0.137587,-0.204742 0.09009,-0.08845 0.216208,-0.137587 0.126121,-0.04914 0.281725,-0.04914 0.232588,0 0.391468,0.10319 0.160518,0.101552 0.242415,0.266984 0.0819,0.163794 0.0819,0.350519 h -0.301381 q 0,-0.134311 -0.04422,-0.237501 -0.04259,-0.104828 -0.134311,-0.163794 -0.09009,-0.0606 -0.235864,-0.0606 -0.131035,0 -0.216208,0.05078 -0.08353,0.05078 -0.124483,0.137587 -0.03931,0.08681 -0.03931,0.198191 0,0.07534 0.02621,0.137587 0.02621,0.0606 0.08026,0.113018 0.05569,0.05241 0.137587,0.09664 0.08353,0.04422 0.196553,0.08517 0.17526,0.05733 0.299743,0.127759 0.124483,0.07043 0.203104,0.15888 0.07862,0.08681 0.114656,0.198191 0.03767,0.109742 0.03767,0.248967 0,0.145777 -0.04914,0.263708 -0.0475,0.117932 -0.139225,0.201467 -0.09173,0.08353 -0.221122,0.129397 -0.129397,0.04422 -0.291553,0.04422 -0.140863,0 -0.276812,-0.04586 -0.134311,-0.04586 -0.244053,-0.137587 -0.109742,-0.09172 -0.17526,-0.226036 -0.06552,-0.135949 -0.06552,-0.314484 h 0.301381 q 0,0.122846 0.03603,0.211294 0.03603,0.08681 0.09991,0.144139 0.06388,0.05733 0.145776,0.08517 0.08353,0.02621 0.178536,0.02621 0.131035,0 0.219484,-0.04586 0.09009,-0.04586 0.134311,-0.131036 0.04586,-0.08517 0.04586,-0.201466 z" style="font-style:normal;font-variant:normal;font-weight:normal;font-stretch:normal;font-size:3.3545px;font-family:'Roboto Condensed';-inkscape-font-specification:'Roboto Condensed, ';text-align:center;text-anchor:middle;fill:#000000;fill-opacity:1;stroke-width:0.200745" id="path944"></path>
    </g>
  </g>
</svg>
