<svg xmlns="http://www.w3.org/2000/svg" xmlns:xlink="http://www.w3.org/1999/xlink" id="Laag_1" x="0px" y="0px" viewBox="0 0 716.02 223.45" style="enable-background:new 0 0 716.02 223.45;" xml:space="preserve">
<style type="text/css">
	.st0{fill:#F7F5F3;}
</style>
<g>
	<polygon class="st0" points="201.76,156.46 197.74,149.44 195.03,149.44 200.6,158.97 200.6,165.39 202.92,165.39 202.92,158.97    208.48,149.44 205.77,149.44  "></polygon>
	<path class="st0" d="M222.98,149.23c-4.28,0-7.5,3.14-7.5,8.19c0,5.06,3.22,8.19,7.5,8.19c4.26,0,7.48-3.14,7.48-8.19   C230.46,152.36,227.24,149.23,222.98,149.23z M222.98,163.35c-2.95,0-5.13-2.22-5.13-5.93c0-3.73,2.18-5.93,5.13-5.93   c2.93,0,5.11,2.2,5.11,5.93C228.09,161.13,225.91,163.35,222.98,163.35z"></path>
	<path class="st0" d="M249.42,159.14c0,2.77-1.37,4.2-3.69,4.2c-2.36,0-3.69-1.43-3.69-4.2v-9.71h-2.34v9.75   c0,4.12,2.32,6.42,6.03,6.42c3.69,0,6.03-2.3,6.03-6.42v-9.75h-2.34V159.14z"></path>
	<path class="st0" d="M272.13,154.37c0-3.22-1.96-4.93-4.62-4.93h-5.93v15.96h2.34v-6.1h3.24l3.1,6.1h2.63l-3.3-6.53   C271.13,158.18,272.13,156.67,272.13,154.37z M267.22,157.03h-3.32v-5.35h3.32c1.39,0,2.51,0.88,2.51,2.69   C269.73,156.16,268.61,157.03,267.22,157.03z"></path>
	<path class="st0" d="M299.79,159.27h4.34c-0.37,2.82-2.1,4.07-4.38,4.07c-2.87,0-4.89-2.01-4.89-5.93c0-3.93,1.98-5.93,4.89-5.93   c2.32,0,3.97,1.41,4.36,3.73l2.42-0.43c-0.67-3.54-3.38-5.57-6.76-5.57c-4.18,0-7.29,3.01-7.29,8.19c0,5.16,3.14,8.19,7.31,8.19   c4.2,0,6.88-3.01,6.88-7.74v-0.83h-6.88V159.27z"></path>
	<path class="st0" d="M326.52,154.37c0-3.22-1.96-4.93-4.62-4.93h-5.93v15.96h2.34v-6.1h3.24l3.1,6.1h2.63l-3.3-6.53   C325.52,158.18,326.52,156.67,326.52,154.37z M321.61,157.03h-3.32v-5.35h3.32c1.39,0,2.51,0.88,2.51,2.69   C324.13,156.16,323.01,157.03,321.61,157.03z"></path>
	<polygon class="st0" points="336.27,165.39 345.5,165.39 345.5,163.13 338.6,163.13 338.6,158.27 344.63,158.27 344.63,156.07    338.6,156.07 338.6,151.68 345.5,151.68 345.5,149.44 336.27,149.44  "></polygon>
	<polygon class="st0" points="354.63,165.39 363.86,165.39 363.86,163.13 356.97,163.13 356.97,158.27 363,158.27 363,156.07    356.97,156.07 356.97,151.68 363.86,151.68 363.86,149.44 354.63,149.44  "></polygon>
	<polygon class="st0" points="382.23,160.72 374.96,149.44 373,149.44 373,165.39 375.34,165.39 375.34,154.13 382.58,165.39    384.57,165.39 384.57,149.44 382.23,149.44  "></polygon>
	<polygon class="st0" points="404.41,151.68 409.63,151.68 409.63,165.39 411.97,165.39 411.97,151.68 417.2,151.68 417.2,149.44    404.41,149.44  "></polygon>
	<path class="st0" d="M436.39,154.37c0-3.22-1.96-4.93-4.62-4.93h-5.93v15.96h2.34v-6.1h3.24l3.1,6.1h2.63l-3.3-6.53   C435.39,158.18,436.39,156.67,436.39,154.37z M431.48,157.03h-3.32v-5.35h3.32c1.4,0,2.51,0.88,2.51,2.69   C433.99,156.16,432.87,157.03,431.48,157.03z"></path>
	<path class="st0" d="M450.93,149.44l-6.21,15.96h2.55l1.38-3.56h6.56l1.36,3.56h2.57l-6.23-15.96H450.93z M449.55,159.57l2.4-6.21   l2.38,6.21H449.55z"></path>
	<polygon class="st0" points="471.12,161.43 466.52,149.44 463.97,149.44 470.14,165.39 472.1,165.39 478.29,149.44 475.71,149.44     "></polygon>
	<polygon class="st0" points="486.89,165.39 496.13,165.39 496.13,163.13 489.23,163.13 489.23,158.27 495.26,158.27 495.26,156.07    489.23,156.07 489.23,151.68 496.13,151.68 496.13,149.44 486.89,149.44  "></polygon>
	<polygon class="st0" points="507.6,149.44 505.26,149.44 505.26,165.39 514.55,165.39 514.55,163.13 507.6,163.13  "></polygon>
	<path class="st0" d="M543.31,157.05c1-0.53,1.65-1.62,1.65-3.29c0-2.92-1.88-4.33-4.46-4.33h-5.78v15.96h6.25   c2.65,0,4.62-1.49,4.62-4.52C545.59,158.78,544.58,157.5,543.31,157.05z M537.04,151.68h3.18c1.39,0,2.36,0.75,2.36,2.26   c0,1.58-0.82,2.2-2.02,2.2h-3.52V151.68z M540.7,163.13h-3.65v-4.82h3.75c1.28,0,2.4,0.68,2.4,2.43   C543.19,162.45,542.09,163.13,540.7,163.13z"></path>
	<path class="st0" d="M564.62,159.14c0,2.77-1.37,4.2-3.69,4.2c-2.36,0-3.69-1.43-3.69-4.2v-9.71h-2.34v9.75   c0,4.12,2.32,6.42,6.03,6.42c3.69,0,6.03-2.3,6.03-6.42v-9.75h-2.34V159.14z"></path>
	<path class="st0" d="M582.65,149.44h-5.87v15.96h5.84c4.1,0,7.21-2.94,7.21-7.98C589.82,152.38,586.76,149.44,582.65,149.44z    M582.63,163.22h-3.54v-11.61h3.55c2.87,0,4.83,1.99,4.83,5.8C587.49,161.23,585.48,163.22,582.63,163.22z"></path>
	<path class="st0" d="M605.03,149.44h-5.87v15.96h5.83c4.1,0,7.21-2.94,7.21-7.98C612.2,152.38,609.13,149.44,605.03,149.44z    M605.01,163.22h-3.54v-11.61h3.55c2.87,0,4.83,1.99,4.83,5.8C609.86,161.23,607.86,163.22,605.01,163.22z"></path>
	<polygon class="st0" points="625.93,156.46 621.9,149.44 619.19,149.44 624.77,158.97 624.77,165.39 627.09,165.39 627.09,158.97    632.65,149.44 629.94,149.44  "></polygon>
	<path class="st0" d="M478.15,109.11c-1.56,8.84-7.51,13.51-15.49,13.51c-9.62,0-17.13-7.31-17.13-21.07   c0-12.91,6.81-21.07,17.05-21.07c8.06,0,13.93,4.76,15.57,13.76l12.6-1.19c-2.11-15.04-13.61-24.22-27.77-24.22   c-17.13,0-29.73,12.15-29.73,32.71c0,20.48,12.67,32.71,29.81,32.71c14.16,0,25.5-9.09,27.77-23.96L478.15,109.11z"></path>
	<path class="st0" d="M538.78,133.24v-29.12c0-12.35-9.66-19.44-19.76-19.44c-2.19,0-9.25,2.4-11.11,4.98V64.49h-12.39v68.75h12.39   V106.8c0-5.71,4.53-9.58,9.45-9.58c4.75,0,9.03,3.41,9.03,9.49v26.54H538.78z"></path>
	<path class="st0" d="M566.65,84.69c-13.41,0-23.33,9.77-23.33,24.79c0,14.93,9.93,24.79,23.33,24.79   c13.41,0,23.33-9.86,23.33-24.79C589.99,94.45,580.06,84.69,566.65,84.69z M566.65,122.65c-6.36,0-10.78-4.88-10.78-13.18   c0-8.38,4.41-13.27,10.78-13.27c6.36,0,10.78,4.88,10.78,13.27C577.43,117.76,573.02,122.65,566.65,122.65z"></path>
	<path class="st0" d="M617.39,84.69c-13.41,0-23.33,9.77-23.33,24.79c0,14.93,9.93,24.79,23.33,24.79   c13.41,0,23.33-9.86,23.33-24.79C640.72,94.45,630.79,84.69,617.39,84.69z M617.39,122.65c-6.36,0-10.78-4.88-10.78-13.18   c0-8.38,4.41-13.27,10.78-13.27c6.36,0,10.78,4.88,10.78,13.27C628.16,117.76,623.75,122.65,617.39,122.65z"></path>
	<path class="st0" d="M220.78,134.26c14.16,0,25.51-9.09,27.77-23.96l-12.68-1.19c-1.56,8.84-7.51,13.51-15.49,13.51   c-9.62,0-17.13-7.31-17.13-21.07c0-12.91,6.81-21.07,17.05-21.07c8.06,0,13.93,4.76,15.57,13.76l12.6-1.19   c-2.11-15.04-13.61-24.22-27.77-24.22c-17.13,0-29.73,12.15-29.73,32.71C190.98,122.02,203.65,134.26,220.78,134.26z"></path>
	<path class="st0" d="M296.51,133.24v-29.12c0-12.35-9.66-19.44-19.76-19.44c-2.19,0-9.25,2.4-11.11,4.98V64.49h-12.39v68.75h12.39   V106.8c0-5.71,4.53-9.58,9.45-9.58c4.75,0,9.03,3.41,9.03,9.49v26.54H296.51z"></path>
	<path class="st0" d="M324.39,84.69c-13.41,0-23.33,9.77-23.33,24.79c0,14.93,9.93,24.79,23.33,24.79   c13.41,0,23.33-9.86,23.33-24.79C347.72,94.45,337.79,84.69,324.39,84.69z M324.39,122.65c-6.36,0-10.78-4.88-10.78-13.18   c0-8.38,4.41-13.27,10.78-13.27c6.36,0,10.78,4.88,10.78,13.27C335.16,117.76,330.75,122.65,324.39,122.65z"></path>
	<path class="st0" d="M375.12,84.69c-13.41,0-23.33,9.77-23.33,24.79c0,14.93,9.93,24.79,23.33,24.79   c13.41,0,23.33-9.86,23.33-24.79C398.45,94.45,388.53,84.69,375.12,84.69z M375.12,122.65c-6.36,0-10.78-4.88-10.78-13.18   c0-8.38,4.41-13.27,10.78-13.27c6.36,0,10.78,4.88,10.78,13.27C385.9,117.76,381.48,122.65,375.12,122.65z"></path>
	<rect x="406.39" y="102.84" class="st0" width="20.32" height="12.53"></rect>
	<path class="st0" d="M125.63,65.21c-23.48,0-40.9,17-41.13,43.19h-0.01v51.5c0,3.15,2.35,5.71,5.25,5.71h2.52   c2.1,0,4.35-1.19,5.22-2.96c6.91-14.01,19.23-34.41,64.4-34.41c0.65,0,0.92,0.97,0.33,1.26c-14.04,6.74-13.05,17.91-13.05,23.07   c0,5.16,5.07,13.04,9.78,13.04h2.57c2.9,0,5.25-2.55,5.25-5.71v-51.5h-0.01C166.53,82.22,149.11,65.21,125.63,65.21z"></path>
</g>
</svg>