<svg xmlns="http://www.w3.org/2000/svg" viewBox="0 0 143.1 117.8"><defs><style>.cls-1{fill:#fff;}</style></defs><g id="Logo"><g id="symbole"><polygon class="cls-1" points="38 0 46.6 117.8 52.2 117.8 38.9 0 38 0"/><polygon class="cls-1" points="51.2 0 64.3 117.8 70 117.8 52.1 0 51.2 0"/><polygon class="cls-1" points="0 117.8 5.7 117.8 21.6 0 20.7 0 0 117.8"/><polygon class="cls-1" points="18.1 117.8 23.8 117.8 36.4 0 35.5 0 18.1 117.8"/><polygon class="cls-1" points="105.1 0 96.6 117.8 90.9 117.8 104.2 0 105.1 0"/><polygon class="cls-1" points="91.9 0 78.8 117.8 73.1 117.8 91.1 0 91.9 0"/><polygon class="cls-1" points="143.1 117.8 137.4 117.8 121.5 0 122.4 0 143.1 117.8"/><polygon class="cls-1" points="125 117.8 119.4 117.8 106.7 0 107.6 0 125 117.8"/></g></g></svg>