<svg xmlns="http://www.w3.org/2000/svg" width="139.132" height="33.088" viewBox="0 0 139.132 33.088">
    <g id="Ebene_2" data-name="Ebene 2" transform="translate(0.005 -0.004)">
        <g id="Ebene_1" data-name="Ebene 1" transform="translate(0.12 0.13)">
            <path id="Path_220" data-name="Path 220" d="M37.613,3.172a4.671,4.671,0,0,0,.575.422l.608.369.479.278a2.721,2.721,0,0,1,.388.259.383.383,0,0,1,.153.273.436.436,0,0,1-.1.283.6.6,0,0,1-.3.2,1.691,1.691,0,0,1-.508.077,2.4,2.4,0,0,1-.479-.057,3.459,3.459,0,0,1-.508-.149,3.152,3.152,0,0,1-.407-.172l-.378,1.059a2.237,2.237,0,0,0,.383.177A4.758,4.758,0,0,0,38,6.334a3.991,3.991,0,0,0,.508.105,2.664,2.664,0,0,0,.479.034,3.081,3.081,0,0,0,1.217-.23,1.8,1.8,0,0,0,.771-.6,1.437,1.437,0,0,0,.268-.858,1.3,1.3,0,0,0-.168-.652,2.022,2.022,0,0,0-.422-.513,3.967,3.967,0,0,0-.58-.417l-.628-.364a5.269,5.269,0,0,0-.479-.283A1.869,1.869,0,0,1,38.6,2.3a.388.388,0,0,1-.158-.3.422.422,0,0,1,.182-.378.906.906,0,0,1,.517-.139,1.955,1.955,0,0,1,.422.034,3.157,3.157,0,0,1,.393.1c.134.043.283.1.441.163L40.833.81a3.32,3.32,0,0,0-.824-.321,3.248,3.248,0,0,0-.9-.12,2.688,2.688,0,0,0-1.121.22,1.71,1.71,0,0,0-.723.585A1.509,1.509,0,0,0,37,2.008a1.3,1.3,0,0,0,.163.642,2.1,2.1,0,0,0,.45.522Z" transform="translate(-19.331 -0.254)" stroke="#000" stroke-miterlimit="10" stroke-width="0.25"/>
            <rect id="Rectangle_261" data-name="Rectangle 261" width="1.346" height="5.874" transform="translate(23.061 0.205) rotate(-0.5)" stroke="#000" stroke-miterlimit="10" stroke-width="0.25"/>
            <path id="Path_221" data-name="Path 221" d="M55.769,6.317,55.74,3.112l1.188,1.456.537-.072L58.4,3.184l.029,3.109,1.346-.014L59.726.41l-.867,0L57.163,2.9,55.266.448l-.9.01.053,5.869Z" transform="translate(-28.379 -0.276)" stroke="#000" stroke-miterlimit="10" stroke-width="0.25"/>
            <path id="Path_222" data-name="Path 222" d="M69.954,6.218V4.344h.733a3.565,3.565,0,0,0,.906-.129,2.448,2.448,0,0,0,.781-.369,1.773,1.773,0,0,0,.546-.628,1.878,1.878,0,0,0,.192-.891A1.864,1.864,0,0,0,72.781,1.2,1.916,1.916,0,0,0,71.909.54a3.186,3.186,0,0,0-1.193-.2H68.56l.048,5.874Zm.733-4.791a1.341,1.341,0,0,1,.546.1.752.752,0,0,1,.345.311,1.054,1.054,0,0,1,.129.532.958.958,0,0,1-.129.479.8.8,0,0,1-.345.311,1.112,1.112,0,0,1-.479.105h-.8V1.436Z" transform="translate(-35.77 -0.238)" stroke="#000" stroke-miterlimit="10" stroke-width="0.25"/>
            <path id="Path_223" data-name="Path 223" d="M84.121,6.105l-.168-1.049-2.544.019L81.366.26,80.02.27l.053,5.874Z" transform="translate(-41.74 -0.198)" stroke="#000" stroke-miterlimit="10" stroke-width="0.25"/>
            <path id="Path_224" data-name="Path 224" d="M94.394,5.994l-.182-1.049-2.693.024-.014-1.375,2.031-.019-.172-1.059L91.5,2.53l-.014-1.318,2.52-.024L93.833.13l-3.7.029.053,5.874Z" transform="translate(-47.006 -0.13)" stroke="#000" stroke-miterlimit="10" stroke-width="0.25"/>
            <path id="Path_225" data-name="Path 225" d="M118.367,36.453l-.158-18.206h19.442v-4.6H93.094V12.21H87.738v1.437H1.361v4.6H29.987V36.453H.12V37.66H29.987v1.6h5.356v-1.6H139V36.453ZM73.691,21.38l2.635,6.765-5.021.043ZM35.363,36.453V18.247h7.522l.158,18.206ZM47.91,19.3l2.875-.029a5.663,5.663,0,0,1,2.046.307,2.621,2.621,0,0,1,1.279,1.016,3.306,3.306,0,0,1,.479,1.8,2.779,2.779,0,0,1-.479,1.677,3.042,3.042,0,0,1-1.294,1.044,4.791,4.791,0,0,1-1.878.369H47.982Zm.153,17.161L48,29.52h2.918c.311,0,.652,0,1-.024l3.8,6.971Zm13.329,0-4.849-8.432A6.861,6.861,0,0,0,58.9,25.706a6.315,6.315,0,0,0,.906-3.464,6.468,6.468,0,0,0-1.2-3.977H70.179l-6.77,18.206Zm7.009,0L69.9,32.193l7.939-.072L79.4,36.457Zm19.332,0H84.566L77.38,18.251H87.738ZM113.2,18.251l.11,9.62-1.533-2.113-5.352-7.493ZM93.344,36.457l-.158-18.206H99.1l.158,18.206Zm10.938,0-.115-12.849,1.27,1.73,8.044,11.134Z" transform="translate(-0.12 -6.422)" stroke="#000" stroke-miterlimit="10" stroke-width="0.25"/>
        </g>
    </g>
</svg>
