<!--?xml version="1.0" encoding="UTF-8" standalone="no"?--><svg id="Ebene_2" viewBox="0 0 120 120" version="1.1" sodipodi:docname="logo1_blue_with_border.svg" width="120" height="120" inkscape:version="1.2.2 (b0a8486541, 2022-12-01)" xmlns:inkscape="http://www.inkscape.org/namespaces/inkscape" xmlns:sodipodi="http://sodipodi.sourceforge.net/DTD/sodipodi-0.dtd" xmlns="http://www.w3.org/2000/svg" xmlns:svg="http://www.w3.org/2000/svg">
  <sodipodi:namedview id="namedview59" pagecolor="#ffffff" bordercolor="#000000" borderopacity="0.25" inkscape:showpageshadow="2" inkscape:pageopacity="1" inkscape:pagecheckerboard="0" inkscape:deskcolor="#d1d1d1" showgrid="false" inkscape:zoom="6.4186724" inkscape:cx="15.42375" inkscape:cy="47.985001" inkscape:window-width="2560" inkscape:window-height="1378" inkscape:window-x="0" inkscape:window-y="30" inkscape:window-maximized="1" inkscape:current-layer="Ebene_2"></sodipodi:namedview>
  <defs id="defs4">
    <style id="style2">
      .cls-1 {
        fill: #26619c;
      }
    </style>
  </defs>
  <g id="LIGHT_BG" transform="translate(12.01,12.015)">
    <g id="Ebene_2-2" data-name="Ebene_2">
      <g id="g54">
        <polygon class="cls-1" points="31.96,28.6 31.96,22.21 33.69,22.21 33.69,20.92 28.74,20.92 28.74,22.21 30.47,22.21 30.47,28.6 " id="polygon6"></polygon>
        <polygon class="cls-1" points="68.92,38.11 67.78,32.14 29.33,32.14 28.09,38.11 " id="polygon8"></polygon>
        <path class="cls-1" d="m 23.06,63.27 v 7.68 h 1.5 v -2.84 h 0.97 c 0.89,0 1.52,-0.25 1.95,-0.68 0.59,-0.59 0.63,-1.42 0.63,-1.71 0,-0.55 -0.16,-1.3 -0.78,-1.85 -0.56,-0.49 -1.16,-0.59 -2.03,-0.59 h -2.23 z m 3.5,2.4 c 0,0.33 -0.14,0.68 -0.41,0.9 -0.32,0.24 -0.69,0.24 -0.98,0.24 h -0.61 v -2.26 h 0.52 c 0.36,0 0.75,0.02 1.06,0.24 0.22,0.16 0.43,0.45 0.43,0.87 z" id="path10"></path>
        <path class="cls-1" d="m 47.83,26.99 0.68,1.61 h 1.61 l -3.21,-7.68 h -1.17 l -3.3,7.68 h 1.62 l 0.68,-1.61 h 3.1 z M 46.3,23 47.39,25.76 H 45.2 L 46.29,23 Z" id="path12"></path>
        <polygon class="cls-1" points="53.54,28.6 53.54,23.46 58.22,28.6 59.25,28.6 59.25,20.92 57.76,20.92 57.76,26.04 53.08,20.92 52.05,20.92 52.05,28.6 " id="polygon14"></polygon>
        <path class="cls-1" d="m 40.59,23.22 c 0,-0.58 -0.17,-1.23 -0.76,-1.73 -0.36,-0.3 -0.9,-0.58 -1.96,-0.58 h -2.22 v 7.68 h 1.5 v -3.08 h 0.18 l 2.05,3.08 h 1.86 l -2.39,-3.23 c 0.37,-0.07 0.64,-0.2 0.84,-0.33 0.6,-0.4 0.9,-1.06 0.9,-1.81 z m -3.01,1.23 h -0.43 v -2.31 h 0.45 c 0.28,0 1.45,0.01 1.45,1.15 0,1.14 -1.19,1.16 -1.47,1.16 z" id="path16"></path>
        <polygon class="cls-1" points="33.46,70.95 33.46,69.66 31.09,69.66 31.09,63.27 29.6,63.27 29.6,70.95 " id="polygon18"></polygon>
        <polygon class="cls-1" points="58.32,63.27 58.32,68.39 53.64,63.27 52.61,63.27 52.61,70.95 54.1,70.95 54.1,65.81 58.78,70.95 59.81,70.95 59.81,63.27 " id="polygon20"></polygon>
        <polygon class="cls-1" points="71.84,53.46 24.88,53.46 23.64,59.43 72.98,59.43 " id="polygon22"></polygon>
        <path class="cls-1" d="m 34.28,70.95 h 1.62 l 0.68,-1.61 h 3.1 l 0.68,1.61 h 1.61 l -3.21,-7.68 h -1.17 l -3.3,7.68 z m 4.96,-2.84 h -2.19 l 1.09,-2.76 1.09,2.76 z" id="path24"></path>
        <path class="cls-1" d="m 70.03,16.79 h 0.99 c 2.12,0 3.84,1.72 3.84,3.84 v 7.68 c 0,1.45 -0.81,2.71 -2,3.37 l 1.23,6.44 h 1.73 c 2.12,0 3.84,1.72 3.84,3.84 v 7.68 c 0,1.72 -1.13,3.17 -2.68,3.66 l 1.17,6.14 h 2.47 c 2.12,0 3.84,1.72 3.84,3.84 v 7.68 c 0,1.97 -1.48,3.59 -3.39,3.81 l 1.28,6.72 C 90.78,72.84 95.98,61.03 95.98,48 95.98,28.5 84.35,11.72 67.64,4.21 l 2.4,12.59 z" id="path26"></path>
        <polygon class="cls-1" points="66.1,67.56 66.1,66.27 63.45,66.27 63.45,64.56 66.21,64.56 66.21,63.27 61.95,63.27 61.95,70.95 66.21,70.95 66.21,69.66 63.45,69.66 63.45,67.56 " id="polygon28"></polygon>
        <path class="cls-1" d="m 64.13,27.41 c -0.54,0 -1.24,-0.28 -1.61,-1.02 l -0.98,0.93 c 0.4,0.59 1.23,1.45 2.65,1.45 1.59,0 2.67,-1.02 2.67,-2.52 0,-0.78 -0.31,-1.3 -0.66,-1.61 -0.39,-0.36 -0.96,-0.56 -1.55,-0.77 -0.48,-0.17 -0.74,-0.26 -0.92,-0.44 -0.18,-0.16 -0.24,-0.33 -0.24,-0.52 0,-0.39 0.25,-0.9 1.06,-0.9 0.28,0 0.81,0.06 1.25,0.66 l 0.78,-1.02 c -0.78,-0.81 -1.69,-0.9 -2.18,-0.9 -1.7,0 -2.46,1.13 -2.46,2.26 0,0.78 0.36,1.21 0.61,1.43 0.39,0.35 0.87,0.53 1.28,0.67 0.44,0.15 0.9,0.3 1.19,0.56 0.21,0.2 0.3,0.41 0.3,0.69 0,0.64 -0.51,1.06 -1.19,1.06 z" id="path30"></path>
        <polygon class="cls-1" points="48.97,63.27 48.97,68.39 44.3,63.27 43.26,63.27 43.26,70.95 44.76,70.95 44.76,65.81 49.43,70.95 50.46,70.95 50.46,63.27 " id="polygon32"></polygon>
        <path class="cls-1" d="m 69.55,67.86 h 0.18 l 2.05,3.08 h 1.86 l -2.39,-3.23 c 0.37,-0.07 0.64,-0.2 0.84,-0.33 0.6,-0.4 0.9,-1.06 0.9,-1.81 0,-0.58 -0.17,-1.23 -0.76,-1.73 -0.36,-0.3 -0.9,-0.58 -1.96,-0.58 h -2.22 v 7.68 h 1.5 z m 0,-3.37 H 70 c 0.28,0 1.45,0.01 1.45,1.15 0,1.14 -1.19,1.16 -1.47,1.16 h -0.43 z" id="path34"></path>
        <path class="cls-1" d="M 32.53,16.79 H 64.86 L 62.06,2.1 C 57.61,0.74 52.88,0 47.98,0 43.73,0 39.62,0.55 35.7,1.59 Z" id="path36"></path>
        <polygon class="cls-1" points="28.73,43.36 31.49,43.36 31.49,42.07 27.23,42.07 27.23,49.75 31.49,49.75 31.49,48.46 28.73,48.46 28.73,46.36 31.37,46.36 31.37,45.07 28.73,45.07 " id="polygon38"></polygon>
        <path class="cls-1" d="m 46.58,44.37 c 0,-0.58 -0.17,-1.23 -0.76,-1.73 -0.36,-0.3 -0.9,-0.58 -1.96,-0.58 h -2.22 v 7.68 h 1.5 v -3.08 h 0.18 l 2.05,3.08 h 1.86 l -2.39,-3.23 c 0.37,-0.07 0.64,-0.2 0.84,-0.33 0.6,-0.4 0.9,-1.06 0.9,-1.81 z m -3.02,1.23 h -0.43 v -2.31 h 0.45 c 0.28,0 1.45,0.01 1.45,1.15 0,1.14 -1.19,1.16 -1.47,1.16 z" id="path40"></path>
        <path class="cls-1" d="m 33.33,42.07 v 4.7 c 0,0.73 0.12,1.46 0.58,2.05 0.55,0.73 1.52,1.1 2.51,1.1 0.99,0 1.96,-0.38 2.51,-1.1 0.46,-0.59 0.58,-1.32 0.58,-2.05 v -4.7 h -1.5 v 4.82 c 0,0.59 -0.2,0.94 -0.37,1.14 -0.22,0.26 -0.62,0.53 -1.22,0.53 -0.6,0 -1,-0.26 -1.22,-0.53 -0.17,-0.2 -0.37,-0.55 -0.37,-1.14 v -4.82 z" id="path42"></path>
        <path class="cls-1" d="m 15.25,74.78 c -2.07,-0.06 -3.74,-1.75 -3.74,-3.83 v -7.68 c 0,-2.12 1.72,-3.84 3.84,-3.84 h 3.1 L 19.7,53.44 C 17.79,53.22 16.31,51.6 16.31,49.63 v -7.68 c 0,-2.12 1.72,-3.84 3.84,-3.84 h 2.74 l 1.26,-6.05 C 22.41,31.69 21.1,30.15 21.1,28.3 v -7.68 c 0,-2.12 1.72,-3.84 3.84,-3.84 h 2.39 L 30.11,3.43 C 12.47,10.52 0,27.79 0,47.98 0,61.11 5.27,73 13.81,81.66 l 1.44,-6.89 z" id="path44"></path>
        <path class="cls-1" d="M 75.9,74.78 H 20.44 l -2.25,10.81 c 8.19,6.5 18.54,10.38 29.8,10.38 11.26,0 21.74,-3.93 29.95,-10.5 z" id="path46"></path>
        <path class="cls-1" d="m 58.24,42.07 v 7.68 h 1.5 v -2.84 h 0.97 c 0.89,0 1.52,-0.25 1.95,-0.68 0.59,-0.59 0.63,-1.42 0.63,-1.71 0,-0.55 -0.16,-1.3 -0.78,-1.85 -0.56,-0.49 -1.16,-0.59 -2.03,-0.59 h -2.23 z m 3.5,2.4 c 0,0.33 -0.14,0.68 -0.41,0.9 -0.32,0.24 -0.69,0.24 -0.98,0.24 h -0.61 v -2.26 h 0.52 c 0.36,0 0.75,0.02 1.06,0.24 0.22,0.16 0.43,0.45 0.43,0.87 z" id="path48"></path>
        <path class="cls-1" d="m 48.27,45.91 c 0,2.34 1.68,4.01 4.1,4.01 2.42,0 4.1,-1.67 4.1,-4.01 0,-2.34 -1.68,-4.02 -4.1,-4.02 -2.42,0 -4.1,1.68 -4.1,4.02 z m 6.66,0 c 0,1.55 -1.06,2.65 -2.56,2.65 -1.5,0 -2.56,-1.09 -2.56,-2.65 0,-1.56 1.06,-2.66 2.56,-2.66 1.5,0 2.56,1.1 2.56,2.66 z" id="path50"></path>
        <polygon class="cls-1" points="68.92,46.36 68.92,45.07 66.28,45.07 66.28,43.36 69.04,43.36 69.04,42.07 64.78,42.07 64.78,49.75 69.04,49.75 69.04,48.46 66.28,48.46 66.28,46.36 " id="polygon52"></polygon>
      </g>
    </g>
  </g>
</svg>
